<?xml version="1.0" encoding="UTF-8"?>
<svg width="379px" height="67px" viewBox="0 0 379 67" version="1.1" xmlns="http://www.w3.org/2000/svg" xmlns:xlink="http://www.w3.org/1999/xlink">
    <!-- Generator: Sketch 53.2 (72643) - https://sketchapp.com -->
    <title>logo_black</title>
    <desc>Created with Sketch.</desc>
    <g id="Page-1" stroke="none" stroke-width="1" fill="none" fill-rule="evenodd">
        <g id="logo_black" transform="translate(-9.000000, -26.000000)" fill="#000000">
            <g id="URBAN-PLANTERY" transform="translate(100.000000, 23.000000)" font-family="Montserrat-Bold, Montserrat" font-size="36" font-weight="bold">
                <g id="URBAN" transform="translate(32.000000, 0.000000)">
                    <g id="Group">
                        <text id="URBAN">
                            <tspan x="0.187099" y="35.0685323">URBAN</tspan>
                        </text>
                    </g>
                </g>
                <g id="PLANTERY" transform="translate(0.000000, 34.234350)">
                    <g id="Group">
                        <text id="PLANTERY">
                            <tspan x="0.723099" y="35.0685318">PLANTERY</tspan>
                        </text>
                    </g>
                </g>
            </g>
            <path d="M38.6744856,64.7639431 C35.9697604,61.0615749 33.7730531,56.9763056 32.150218,52.6208124 C31.3411523,50.4445616 30.1745925,48.8257101 29.0456638,47.260704 C27.5498331,45.1821726 26.0069637,43.0398244 25.1743788,39.4271981 C27.7050608,43.624645 30.2921893,47.8515075 32.8887255,52.0085705 C36.9152382,58.4560563 40.9323433,64.7001262 45.8008487,70.2177827 C46.2053815,70.6764654 46.6663608,71.1301623 47.1743788,71.3958995 C44.8459631,71.6910522 40.5748491,67.3679656 38.6744856,64.7639431 Z M47.4638508,70.4989479 C47.4170523,70.5334107 47.3655739,70.561473 47.3140955,70.5890432 C46.7057143,70.4300228 46.1534914,69.8953605 45.6714663,69.3542976 C40.8418555,63.9259454 36.8546188,57.7733866 32.8580223,51.41996 C30.3964184,47.5059932 27.9441742,43.5299937 25.5340487,39.5751641 C26.4887392,40.3609115 27.4715088,41.0944725 28.468318,41.7965249 C30.8597241,44.8420342 33.25581,47.9471145 35.6097773,51.0610566 C37.9403452,54.1439824 40.1866758,57.1835838 42.1054165,60.4787006 C43.1396645,62.2550018 44.0803154,64.1154899 44.9882074,65.9149298 C45.4047145,66.7454786 45.9007792,67.586366 46.3828043,68.3991912 C46.7712322,69.0653038 47.16902,69.7501248 47.5340487,70.4300228 L47.4638508,70.4989479 Z M36.9573094,47.9260577 C39.7926421,50.8511794 41.6997959,54.5329571 43.1959649,57.7489883 C43.3067922,57.9884176 43.4730332,58.3303214 43.6762167,58.7499304 C47.0887751,65.7706111 47.7029432,68.3960813 47.638294,69.371769 C47.3196654,68.7894648 46.9871834,68.2076456 46.6547013,67.639425 C46.1836852,66.8424596 45.6988156,66.0178114 45.2878309,65.2087041 C44.3919766,63.428765 43.4591798,61.5890906 42.434027,59.8271214 C40.5361088,56.5605816 38.3057087,53.5528981 36.0014237,50.5034478 C33.9049399,47.7283947 31.7715136,44.9586838 29.6427052,42.2346248 C29.9013023,42.4128615 30.1598994,42.5925552 30.4184966,42.7688493 C32.6812213,44.3229567 35.0270666,45.9300009 36.9573094,47.9260577 Z M60.4304564,25.3688295 C60.7416904,24.9084839 61.0349688,24.4679545 61.3162764,24.0416521 L58.8084493,30.4575284 C57.6293518,33.4787369 56.4023724,36.5949615 54.8521884,39.5485917 C52.7393892,36.8601937 57.3480442,29.970253 60.4304564,25.3688295 Z M55.5586107,39.8568652 C55.5114903,39.9315434 55.4277206,39.9467838 55.3858358,39.949832 L55.2915949,39.9381476 C56.6790297,36.9286668 57.7732704,33.7540812 58.8308623,30.6567139 L60.2915949,26.3812599 C59.3491867,31.2185785 57.9669879,36.2921241 55.5586107,39.8568652 Z M54.1118483,68.1106511 C54.4284291,67.6719769 54.7024841,67.2909352 54.9009377,66.9922943 C57.5422607,63.0575638 60.2639101,60.1611717 63.2218141,58.1364123 C66.02379,56.221202 69.217948,54.956144 72.4782573,53.8954196 C63.7699238,58.9651773 56.2475872,65.9196619 50.4782573,74.2482777 C51.125594,72.2835326 53.1101301,69.510026 54.1118483,68.1106511 Z M76.5957872,53.8400993 C78.8165717,53.1844773 81.0805254,52.5172939 83.2869208,51.7041493 C82.6921532,51.9960721 82.0782002,52.2547562 81.4738393,52.5071779 L81.0901187,52.6680726 C71.5594501,56.6716542 62.8202057,62.8193752 55.8172988,70.4479057 C55.5055254,70.7904095 55.1937522,71.1362846 54.8819789,71.4831237 C53.467008,73.0530519 52.004072,74.6750057 50.2869208,75.9337423 C56.4312522,67.0927203 64.54695,59.7980222 73.9529094,54.63253 C74.8354671,54.3622846 75.7180253,54.0987834 76.5957872,53.8400993 Z M70.4369699,63.1494375 C66.2349618,66.0626105 61.8898084,69.0747082 58.6159362,71.6989023 C58.0572074,72.1447962 57.4938617,72.6126192 56.9258979,73.08629 C55.0003624,74.6919948 53.0101805,76.3464316 50.9091765,77.4233991 C50.9045589,77.3615097 50.9137941,77.2923111 50.9184117,77.2265232 C51.0199987,77.1417306 51.1354385,77.059374 51.2231727,76.9984598 C51.2832014,76.9589873 51.3339949,76.9219509 51.3801708,76.8888136 C53.1348555,75.5764728 54.6032495,73.8640457 56.0208501,72.2081476 C56.3209935,71.8577672 56.6211369,71.5088494 56.9258979,71.1628554 C63.6306404,63.482274 72.0023329,57.2919041 81.1359289,53.2613167 L81.505336,53.0985533 C82.701292,52.5742017 83.934189,52.0303575 84.9823821,51.1970478 C85.6334626,50.9109935 86.2753077,50.6127564 86.907918,50.2862549 C84.2250972,53.5936659 76.9754787,58.6203264 70.4369699,63.1494375 Z M44.4504508,45.9814282 C42.066765,40.0200655 41.0335323,33.5128278 40.0320218,27.2199543 C39.3749221,23.0872483 38.6996955,18.8407981 37.6392725,14.7124669 C38.5682755,16.7783339 39.3341366,18.9312102 39.9051336,21.1404726 C40.598487,23.817836 41.0335323,26.6235263 41.4549825,29.3373463 C42.0848918,33.418041 42.7329281,37.6377564 44.282777,41.4987401 C44.8492423,42.9074183 45.5335323,44.2679739 46.1951637,45.5823514 L49.6392725,52.4415155 L49.5214477,52.4993598 C48.4293027,52.7467777 45.6060399,48.8692671 44.4504508,45.9814282 Z M47.0977043,32.3683559 C48.7469815,37.6774228 50.8018186,44.2851139 50.6891631,49.6330181 C50.6576195,51.1015557 50.463852,51.9569485 50.2340347,52.3865868 L46.8723933,45.6618983 C46.2189911,44.3555066 45.5430579,43.003481 44.9887925,41.6111617 C43.4611834,37.792964 42.8167937,33.5995002 42.1904289,29.5443945 C41.7758565,26.825294 41.3432592,24.0134692 40.6447948,21.3215549 C40.140098,19.3510444 39.4821896,17.4198567 38.6936008,15.5576054 C42.1273418,19.827773 44.8896557,25.2499537 46.908443,31.7605513 L47.0977043,32.3683559 Z M58.6755668,49.2218933 L59.0691653,48.5150268 C62.010342,43.2340884 65.2023834,38.0574176 68.5674353,33.0770443 C68.065705,35.0640047 67.1400995,36.9183053 66.2317951,38.7197378 C65.9160514,39.3394697 65.6046327,39.9577331 65.3105148,40.5808917 C64.7136291,41.8384677 64.1772969,43.15087 63.6539406,44.4197051 C63.3641479,45.1299982 63.0700305,45.8388227 62.7672622,46.542752 C60.3364661,52.1913198 57.2439059,57.442887 53.5674353,62.1525559 C53.9350824,57.7033115 56.6340444,52.8673464 58.6755668,49.2218933 Z M66.512788,41.7944505 C63.5638909,48.2180501 58.7384232,58.7121118 53.0550946,63.3223598 L53.1578592,63.2239085 C56.9914252,58.5186036 60.2218077,53.2686628 62.7551784,47.6205511 C63.06794,46.9221756 63.3672978,46.2174953 63.6711234,45.5133 C64.2117544,44.259619 64.7657896,42.9637445 65.3779096,41.7265529 C65.6772669,41.1111095 65.998965,40.5010009 66.3206626,39.8904073 C67.392989,37.8510539 68.4921234,35.7442879 68.9478621,33.4294641 C68.9836061,33.3795109 69.0193501,33.3276177 69.0550946,33.2776644 C68.9031816,36.1856224 67.7727709,39.0572066 66.512788,41.7944505 Z M51.8422807,62.9290858 L52.0722807,62.7953384 L51.8322807,62.9697915 L51.8422807,62.9290858 Z M50.218934,79.2522045 C52.8192241,78.1285697 55.166642,76.2292893 57.4424922,74.3925688 C58.0245755,73.9228807 58.5971164,73.4585686 59.1648859,73.0172279 C62.5142505,70.4131704 66.9848413,67.4058949 71.307525,64.4963695 C80.5540613,58.2755662 89.290082,52.39982 89.9866733,48.8285276 C90.0391564,48.5606929 89.9341908,48.2860157 89.7147163,48.1281496 C89.4952424,47.969306 89.2089719,47.9570873 88.9799559,48.0968697 C85.2059564,50.3847059 80.8498745,51.695532 76.6369272,52.9623706 C71.8562103,54.4002716 66.9132734,55.8875362 62.7050975,58.8112356 C59.5752073,60.9891034 56.7077313,64.0819097 53.9404501,68.268049 C53.7448319,68.5656973 53.4776462,68.9444785 53.172291,69.3804426 C52.1274038,70.8584212 51.1159148,72.349107 50.3525269,73.7439983 C50.5433739,70.1028144 50.8344155,66.6033683 51.2208806,63.2314859 C51.1683977,63.8590401 51.1540842,64.4836618 51.201796,65.1004639 C51.2208806,65.3404398 51.3592447,65.5535348 51.5691764,65.6630145 C51.6645998,65.7138444 51.7695657,65.7387708 51.8745316,65.7387708 C51.9985821,65.7387708 52.1226326,65.7050467 52.2275985,65.6371106 C59.1267169,61.3229193 64.6183385,50.0411151 68.2730584,42.5300132 C69.9715962,39.0432744 71.4840585,35.275016 71.0546528,31.351824 C71.0212546,31.0732368 70.8304076,30.840592 70.5679933,30.7633696 C70.3103498,30.6895684 70.019308,30.7794983 69.8523172,31.0009019 C65.4437516,36.7280682 61.2880587,42.7533717 57.4997463,48.9091712 L57.0655695,49.6124818 C54.8326598,53.2233629 51.9174721,57.9588565 51.2972194,62.5565229 C52.2323696,54.7678112 53.7018914,47.6672589 55.7391829,41.096511 C55.9681993,41.2206533 56.2210716,41.2944545 56.4882573,41.2944545 L56.5836808,41.2920107 C57.0846541,41.2597533 57.518831,41.0012048 57.7907875,40.5803915 C61.1830931,35.2794147 62.4140557,26.9149563 63.315808,20.8070541 L63.4398584,19.9712925 C63.4971123,19.5930004 63.2394693,19.2401233 62.8720889,19.1829396 C62.5047084,19.1272222 62.1564127,19.3843043 62.1039297,19.7630852 L62.1039297,19.7650402 C61.9512517,20.7630666 60.7298313,22.9683043 59.4320716,25.3025717 C56.6695619,30.2804851 53.2915704,36.3668823 54.7229227,39.8032798 C53.9881618,42.1008911 53.3249686,44.4654611 52.7285718,46.8960122 C52.3230219,41.8169276 50.4718062,36.1401026 48.9402592,31.4490851 L48.7398699,30.8376595 C46.0393851,22.5499347 42.1079373,15.9254244 37.0600346,11.148387 C36.8357894,10.9333373 36.4922649,10.9025461 36.2346214,11.0750746 C35.976978,11.2461369 35.8624698,11.5765315 35.9626645,11.8756462 C37.5753215,16.8335209 38.4532176,22.1061502 39.3024867,27.2057622 C40.3664586,33.612779 41.473371,40.2377781 44.0450341,46.383314 C44.7559391,48.0866059 47.9717108,53.7820035 50.5576874,53.7820035 C50.6674244,53.7820035 50.7771614,53.7722285 50.8821272,53.7502348 C51.0300336,53.7213986 51.1636266,53.6691024 51.2876771,53.6075199 C50.4622639,58.0658927 49.83724,62.7554436 49.4126055,67.7103859 C48.6826158,65.6415091 47.5089069,63.0946356 46.0536986,60.1763126 C45.8437669,59.7633196 45.6767758,59.4265712 45.5622676,59.1905052 L45.5622676,59.1900164 C43.9686954,55.848925 41.9266326,52.0156629 38.8539962,48.9248113 C36.7594506,46.820256 34.2832111,45.1648616 31.8833102,43.5632295 C29.5549771,42.0050962 27.1407628,40.394178 25.1464118,38.3961701 C24.9412513,38.1879628 24.6263538,38.1390879 24.3734815,38.2725165 C24.1110669,38.4054563 23.9679317,38.6918636 24.0061011,38.9851132 C24.7122349,44.2469901 26.6875012,46.8950347 28.595971,49.4555932 C29.7315106,50.9819578 30.809796,52.4237687 31.5636416,54.3777891 C33.2526373,58.7696919 35.5428011,62.8888723 38.3673364,66.6214522 C38.4293617,66.7030735 43.8351025,73.6829042 47.8238044,73.6829042 C48.2388966,73.6829042 48.6396752,73.6003059 49.016598,73.4331537 C48.9545727,74.5895345 48.8973187,75.7547135 48.8543781,76.9394423 C48.5442517,85.7051642 48.8830051,95.7377242 53.7591455,103.681858 C53.8879672,103.891043 54.1074412,104.00541 54.3316864,104.00541 C54.455737,104.00541 54.5797875,103.971198 54.6895245,103.899352 C55.0091932,103.696032 55.0998455,103.268377 54.9042274,102.944335 C50.629255,95.9869868 49.9946888,87.2437473 50.1473663,79.2673557 L50.218934,79.2522045 L50.218934,79.2522045 Z" id="Fill-99" fill-rule="nonzero" transform="translate(57.000000, 57.484592) rotate(-46.000000) translate(-57.000000, -57.484592) "></path>
            <path d="M323.482113,15.6310534 C323.476613,13.9745752 323.948172,12.3307193 324.739373,11.0031608 L327.46699,13.8193964 C326.723907,15.1447275 325.932705,16.3163646 324.819799,17.0031608 L323.46699,15.7156964 L323.482113,15.6310534 Z M331.491297,12.6123915 C332.668553,13.8436993 333.963304,15.3306808 334.645237,17.0087152 C335.234249,18.4640886 334.991579,21.25613 334.162201,22.7093962 C332.97189,24.0270993 331.895235,25.4241735 330.93761,26.8858686 C330.854672,25.7711593 330.583589,24.659962 330.017615,23.6168975 C329.085333,21.8981239 327.509514,20.6288865 326.11877,19.5085579 L324.969928,18.5820919 C326.667849,17.4765138 327.72761,15.8181466 328.752046,14.2026258 C329.174414,13.5346431 329.596782,12.8666604 330.065227,12.2478457 C330.223424,12.0371256 330.337847,11.91842 330.399282,11.8910264 C330.473773,11.8580135 330.876943,11.9703976 331.491297,12.6123915 Z M333.507659,47.9004459 C332.225232,49.2309453 331.03296,50.1563619 329.842085,50.7455733 C329.967182,50.0717991 330.063626,49.3952971 330.139104,48.7160673 C334.370764,45.1610219 337.401066,40.3436729 338.679999,35.0353144 C339.293607,32.5025236 339.57036,29.6423931 339.555683,26.0382468 C339.547996,24.2774321 339.463432,22.5050241 339.329948,20.7510289 L339.33484,20.7455733 C342.677537,29.9124483 340.341214,40.8149057 333.507659,47.9004459 Z M322.977647,47.1929832 C322.319648,46.7253826 321.647232,46.2718703 320.974815,45.8183581 C319.015238,44.498074 317.165764,43.2535988 315.625628,41.6180029 C311.893256,37.6551378 310.17879,31.3234093 310.920677,24.2456665 C311.006531,23.4271977 311.228704,23.1185947 311.323078,23.0984684 C311.450877,23.0696207 311.793639,23.2319727 311.958138,23.3097944 L316.377345,25.4076239 C318.587276,26.4562032 320.864056,27.5376555 322.67945,29.1578213 C322.912109,29.365122 323.136903,29.5818149 323.354489,29.8092419 C324.364424,30.8665427 325.264257,32.2304338 326.10445,33.9787368 C328.791496,39.5792105 329.450805,46.062557 327.99849,52.0950748 C326.789319,50.1676478 325.07813,48.6903787 322.977647,47.1929832 Z M319.219263,16.0777339 C318.314723,18.0281808 318.365075,20.4408357 318.515532,22.9466378 C318.554495,23.6057251 318.603648,24.3572541 318.770889,25.0777339 C317.995826,24.6127033 317.220163,24.1857784 316.476869,23.7800234 L315.219263,23.0941209 C315.435058,20.3060544 317.360429,17.9286826 319.219263,16.0777339 Z M318.083134,24.8508739 C317.779585,24.05743 317.713804,23.1508366 317.660358,22.3804418 C317.487684,19.8764839 317.431497,17.4745002 318.539486,15.6201046 C318.946503,17.964815 319.979119,19.8045431 321.069293,21.7448485 C321.406418,22.3441221 321.753821,22.9615556 322.094372,23.6139117 C323.201677,25.7372121 324.290481,28.1489741 324.564566,30.6201046 C323.983505,29.7184004 323.37161,28.9200674 322.71312,28.2341855 C321.361194,26.8212129 319.737239,25.7518796 318.083134,24.8508739 Z M335.970779,30.2244591 C335.690281,31.3917302 335.406139,32.5716673 335.103784,33.77027 C333.991989,38.1807015 332.415368,43.5130837 329.859551,47.1542229 C330.059179,44.3370398 329.799809,41.4998578 329.093098,38.7506711 L329.096741,38.7413382 C329.415854,36.7947754 329.949894,34.8902103 330.671176,33.0516417 L330.679919,33.0349759 L330.687205,33.0089773 C332.279126,28.965193 334.802885,25.2507244 338.093098,22.1542229 C337.274916,24.8414129 336.633048,27.4732725 335.970779,30.2244591 Z M339.666424,21.3315751 C339.791447,22.9273573 339.858533,24.5379589 339.866156,26.1364355 C339.882165,29.6573951 339.583329,32.4468142 338.926194,34.9115534 C337.666813,39.6429902 334.835493,43.9850805 330.866766,47.3315751 C333.496829,43.5964075 335.120607,38.2802771 336.273261,33.8708259 C336.589631,32.659675 336.88618,31.4646908 337.181205,30.2838524 C337.940493,27.2350934 338.66395,24.3358759 339.645078,21.3497626 L339.666424,21.3315751 Z M325.365995,21.9483972 C326.574564,22.9438322 327.823775,23.9739608 328.513265,25.2736307 C329.726113,27.5600623 329.098655,30.3702316 328.274404,33.2944889 C327.954258,34.1364722 327.670476,34.9911319 327.42591,35.8571337 C327.112894,35.1005497 326.770645,34.352639 326.38704,33.6220751 C326.102545,33.0803236 325.80878,32.5792701 325.508599,32.1002337 C325.428741,29.3527795 324.147444,26.6727107 322.828357,24.3515856 C322.471134,23.7237676 322.108206,23.1299759 321.753836,22.5521966 C320.597317,20.6620709 319.593385,19.0021229 319.190528,16.8571337 L325.365995,21.9483972 Z M318.536257,66.8172613 C315.838293,64.5382987 313.569332,61.6972928 311.402797,58.93576 C310.771911,58.1317151 310.112821,57.2718238 309.533149,56.3696896 C310.028951,56.9345974 310.515104,57.5188367 310.990123,58.1016439 C311.730115,59.0102219 312.495342,59.9495869 313.279125,60.7457561 C315.650512,63.153595 318.161437,65.4869715 320.742872,67.6771526 L320.855689,67.7723779 C322.289655,68.9780873 323.836438,70.0520565 325.533149,70.2589746 C324.761984,70.5761534 322.887883,70.4293777 318.536257,66.8172613 Z M323.761829,65.0060929 L323.764015,65.0075265 L324.007403,65.2540979 C324.763072,66.0203329 326.673741,67.9692507 326.764829,69.1404649 C326.732037,69.2494151 326.718192,69.3576485 326.722564,69.4680322 C325.020305,69.4400779 323.436825,68.325489 321.968481,67.0661111 L321.859904,66.9736469 C319.336393,64.7889094 316.881379,62.463684 314.564821,60.0646301 C313.812067,59.2840595 313.100849,58.3959723 312.349552,57.4541268 C311.523927,56.4205338 310.677899,55.3761891 309.764829,54.4680322 C315.074187,56.4241177 319.428938,60.56064 323.761829,65.0060929 Z M347.773288,54.6445276 C348.485506,54.2913 349.220565,53.9255883 349.922401,53.4614723 C350.514185,53.0693236 351.074131,52.5993327 351.601546,52.072796 C355.665133,50.5174198 359.833926,49.2124606 364.036635,48.2181361 C365.445843,47.8840019 366.907655,47.6005386 368.288486,47.7694416 C369.084453,48.0712639 369.862425,48.4266945 370.608558,48.8511551 C370.488124,49.0582448 370.356617,49.2601941 370.225109,49.4621433 C365.526824,52.1667942 360.495618,54.0922883 355.238771,55.1732674 C353.435732,55.5441196 351.265163,55.866504 349.107053,55.6483988 C348.613553,55.3245457 348.117977,55.0073018 347.608558,54.7275104 L347.773288,54.6445276 Z M345.939109,51.4533105 L345.937669,51.4519554 C345.96935,49.1048208 347.326617,46.9657031 348.763087,44.7052987 C349.048221,44.2574188 349.331915,43.8115717 349.602649,43.3657245 C351.66987,39.9730852 353.126501,36.3310966 353.950222,32.5203909 C354.691138,33.6221348 355.016594,35.2964331 354.92155,37.5243137 C354.797703,40.4487458 354.376483,42.7064399 353.598845,44.6327977 C352.646958,46.990096 351.073681,48.9049349 349.167747,50.0236183 C348.543477,50.3922214 347.865923,50.6896787 347.149488,51.0061082 C346.77507,51.1700824 346.394171,51.3387996 346.014713,51.5203909 L345.939109,51.4533105 Z M365.963262,46.6839798 C364.983706,46.7508554 364.009963,46.9174014 363.096534,47.0974512 C359.001727,47.9051031 354.937441,48.9416755 350.963262,50.1718013 C351.610002,49.5229791 352.196428,48.7989217 352.700739,48.0028444 L352.734166,47.994485 C356.765026,46.1271115 361.567613,45.7027084 365.963262,46.6839798 Z M361.379001,56.596215 C359.464168,56.9812418 357.519804,57.3347331 355.559332,57.5562152 C354.453253,57.6823573 353.29885,57.7615628 352.167938,57.6376209 C351.503485,57.4080715 350.881315,57.1359859 350.376599,56.8418988 C350.224245,56.7230905 350.073233,56.6013487 349.918865,56.4869408 C351.775306,56.5580791 353.595505,56.2669255 355.139855,55.9391026 C359.954119,54.9204317 364.577101,53.1573757 368.918865,50.6998046 C367.10068,53.152242 364.510655,55.1683157 361.379001,56.596215 Z M366.981581,61.4541399 L366.890962,61.4505642 C365.945308,61.4005046 364.966037,61.1873937 364.016729,60.9814343 L353.264482,58.6522328 L353.178248,58.6508026 L353.05182,58.5263687 C354.235714,58.7065832 355.358222,58.7401947 356.213987,58.5671315 C359.413426,57.9185022 362.322737,56.852948 364.842532,55.4541399 C366.508754,56.9165952 367.303133,59.1699921 366.981581,61.4541399 Z M356.809733,67.199665 C357.085771,67.7696997 357.919621,69.6872822 357.062111,70.4173514 C356.334374,71.0355381 354.860976,70.3911511 354.260862,70.083828 C348.256138,67.0162625 344.008736,60.7324273 343.448773,54.0732892 C343.435868,53.9153789 343.439453,53.7794203 343.441604,53.6760352 C344.515643,54.1171925 345.558851,54.6581943 346.568362,55.2862946 L346.630023,55.3415278 C346.951948,55.6184018 347.361344,55.8832378 347.824515,56.1317871 C351.445274,58.7334112 354.549806,62.5260892 356.809733,67.199665 Z M358.194176,56.1363227 C357.524193,56.4653227 356.834912,56.7533227 356.125731,56.9973227 C355.637867,57.1643227 354.946777,57.1213227 354.194176,56.9303227 C354.583744,56.8923227 354.970296,56.8363227 355.349611,56.7713227 C356.304232,56.6063227 357.251013,56.3813227 358.194176,56.1363227 Z M333.573565,74.213787 L335.524659,73.5248051 C334.432226,74.1517228 333.309074,74.7354049 332.205403,75.3009558 C331.032798,75.9034662 329.818985,76.5241078 328.665112,77.197748 C327.450549,77.9041636 326.388837,78.8609279 325.363839,79.7884035 C325.08586,80.0394495 324.804136,80.2800353 324.524659,80.5248051 C324.729209,79.4439125 326.188033,77.8337312 327.266979,77.0785011 C329.113924,75.7849167 331.381208,74.9857535 333.573565,74.213787 Z M325.938657,80.5494866 C326.115326,80.3900833 326.290541,80.229306 326.466482,80.0671544 C327.441433,79.1725725 328.450554,78.2463849 329.581816,77.5785404 C330.691268,76.9230633 331.86179,76.3136208 332.994506,75.7247908 C334.308254,75.0411434 335.654718,74.341006 336.938657,73.5494866 C333.985451,76.7279318 330.169258,79.1608921 325.938657,80.5494866 Z M333.149858,79.2755526 C330.780638,81.0830889 327.687278,82.588006 326.613194,81.9783064 C326.454507,81.887595 326.353335,81.7976271 326.273645,81.7091463 C330.487517,80.2666863 334.302939,77.6226719 337.273645,74.1161556 C336.355477,76.1132936 334.940459,77.9104203 333.149858,79.2755526 Z M321.816067,14.1100068 C321.699685,14.0161956 321.480942,13.8210953 321.171757,13.7218457 C320.324829,13.44653 319.625133,13.9992008 319.397275,14.1807052 C316.910477,16.137826 314.103977,18.7516257 313.484907,22.0696897 L312.114258,21.4531185 C311.65574,21.2471416 310.964456,20.9371565 310.175018,21.1050651 C309.396798,21.2688949 308.42157,21.8963428 308.19231,23.9425163 C307.334866,31.6833062 309.368754,38.6620495 313.773059,43.0902137 C315.57278,44.9038984 317.740578,46.283196 319.831957,47.6183073 C320.537262,48.0683295 321.242568,48.5169921 321.93245,48.9833293 C324.659024,50.8242057 326.688705,52.5971028 327.735446,55.2829605 L327.762088,55.352979 C329.085062,58.8083611 329.310115,62.6410276 328.451268,66.4981661 C327.844117,65.6518253 327.06169,64.8238388 326.289079,64.0529548 L326.061923,63.8252245 L326.063325,63.8259043 C321.180871,58.8885765 316.26196,54.3285327 309.766979,52.7153866 C309.438163,52.6338116 309.088315,52.7194654 308.841528,52.9451563 C308.59404,53.1688078 308.481163,53.4998664 308.543561,53.8234474 C309.027319,56.3570316 310.639847,58.4242787 312.062377,60.2468007 C314.141136,62.9102252 316.288602,65.6627019 318.969605,67.9277684 L319.088091,68.0283776 C321.309874,69.8814902 324.36947,72.1173257 326.856268,71.8358918 C326.2386,73.7032801 325.622334,75.6257315 325.251452,77.6052854 C323.650843,86.1380328 327.08062,95.4858507 333.818883,101.181827 C334.062865,101.388483 334.313158,101.591061 334.566254,101.787521 C334.994626,102.121299 335.619305,102.054 335.963545,101.640006 C336.306382,101.223294 336.268523,100.601964 335.809303,100.285861 C330.798548,96.3892941 327.602238,90.3642988 326.964237,84.151681 C329.613691,85.2318702 334.092311,82.3849019 335.434215,81.460385 C338.595471,79.2823319 340.777992,76.0472024 341.426509,72.5891012 C341.490309,72.2464861 341.364111,71.8916348 341.084372,71.6761407 C340.809542,71.4552084 340.43235,71.3933473 340.097926,71.5163897 L334.912597,73.4218462 C332.730777,74.2219613 330.477445,75.0506275 328.52208,76.4754713 L328.521378,76.4761511 C328.229721,76.6889259 327.774007,77.0736881 327.290248,77.5692564 C327.68006,75.6644796 328.301934,73.7658209 328.912592,71.9249446 C329.254728,70.8930205 329.587049,69.8583773 329.893429,68.8162564 C331.601307,65.8251722 333.540547,62.7518337 336.022437,60.05306 C338.431414,57.4365411 341.143265,55.4658245 343.950465,54.2816271 C343.946259,54.4291419 343.950465,54.5827749 343.963786,54.7398068 C344.56603,61.7783717 349.128783,68.4178983 355.604134,71.6645843 C357.631712,72.6781539 359.388666,72.7026264 360.553192,71.7312039 C361.877568,70.6245027 361.965907,68.7142876 360.80068,66.3520109 C359.758847,64.2364986 358.532624,62.3045306 357.168987,60.5635837 L365.031112,62.2508271 C366.018259,62.4642817 367.039059,62.6831747 368.109638,62.740957 C368.409007,62.7565922 369.204754,62.7994191 369.762128,62.2372312 C370.162456,61.8429519 370.244484,61.3310687 370.278838,61.1148949 C370.68828,58.5928671 369.806998,55.9199255 367.981336,54.0674926 C370.543152,52.3544171 372.57003,50.2409443 373.886694,47.8229246 C374.132078,47.3756216 373.963114,46.818872 373.527731,46.5530734 C368.345908,43.4763354 361.704397,42.9447382 356.040217,45.0235417 C356.733604,43.0337909 357.116404,40.7503701 357.233488,37.9006826 C357.398947,33.9381758 356.362723,31.2863078 354.150755,30.0361706 C353.86681,29.8743801 353.518364,29.8607843 353.221098,29.9974224 C352.923832,30.1354202 352.716307,30.4066571 352.66723,30.7220805 C352.001887,34.9626222 350.547106,39.0019454 348.346356,42.726525 C348.087651,43.1629514 347.817728,43.6000576 347.547804,44.0405627 C346.038338,46.4864538 344.479094,49.0173189 344.515551,51.9757731 L344.515551,51.998886 C340.960278,53.2014378 337.520686,55.5331239 334.540314,58.7702927 C333.178078,60.2508794 331.983406,61.8293561 330.896702,63.4370639 C331.090906,60.5112397 330.709509,57.6431978 329.732176,54.9682169 C329.912359,54.4406984 330.071508,53.9077415 330.218739,53.3720656 C332.13274,52.7704498 333.937369,51.5611 335.872402,49.5679503 C343.246562,41.9685571 345.753692,30.2639008 342.110781,20.445667 C342.004915,20.1574352 341.713959,19.3899502 340.920315,19.139107 C339.959809,18.8359199 339.199117,19.5163915 338.948825,19.740043 C338.810007,19.8644449 338.6782,19.9942852 338.542187,20.1200467 C338.619308,18.8814659 338.502926,17.6517224 338.152376,16.7360428 C337.418325,14.81835 336.098857,13.2058837 334.906287,11.8816491 C333.41505,10.2304347 332.182518,10.4330127 331.578871,10.7042496 C331.071276,10.9333395 330.74877,11.3181017 330.47464,11.6994649 C330.181581,12.110739 329.908152,12.5437664 329.640332,12.9829119 L327.100251,10.6287927 C326.232991,9.80216581 325.463885,9.96735524 325.102118,10.1434213 C324.781015,10.2977341 324.594523,10.536341 324.485852,10.6709398 C323.544276,11.8972843 322.922401,13.3404824 322.674212,14.8435023 L321.816067,14.1100068 L321.816067,14.1100068 Z" id="Fill-70" fill-rule="nonzero" transform="translate(340.997246, 56.006303) scale(-1, 1) rotate(-46.000000) translate(-340.997246, -56.006303) "></path>
        </g>
    </g>
</svg>