<?xml version="1.0" encoding="UTF-8"?>
<svg width="431px" height="111px" viewBox="0 0 431 111" version="1.1" xmlns="http://www.w3.org/2000/svg" xmlns:xlink="http://www.w3.org/1999/xlink">
    <!-- Generator: Sketch 53.2 (72643) - https://sketchapp.com -->
    <title>logo</title>
    <desc>Created with Sketch.</desc>
    <g id="Page-1" stroke="none" stroke-width="1" fill="none" fill-rule="evenodd">
        <g id="logo" transform="translate(-14.000000, -41.000000)" fill="#62A388">
            <g id="URBAN-PLANTERY" transform="translate(137.000000, 50.000000)" font-family="Montserrat-Bold, Montserrat" font-size="36" font-weight="bold">
                <g id="URBAN" transform="translate(32.000000, 0.000000)">
                    <text>
                        <tspan x="0.187099" y="35.3861295">URBAN</tspan>
                    </text>
                </g>
                <g id="PLANTERY" transform="translate(0.000000, 44.000000)">
                    <text>
                        <tspan x="0.723099" y="35.386129">PLANTERY</tspan>
                    </text>
                </g>
            </g>
            <path d="M68.5210897,111.087173 C63.7263495,104.836118 59.8321866,97.9385753 56.9553425,90.5847883 C55.5210897,86.9104202 53.4530974,84.1771617 51.4518146,81.5348154 C48.8001148,78.0254361 46.0650282,74.408309 44.5890821,68.3087737 C49.0752912,75.3957165 53.6615644,82.5323243 58.264515,89.5510829 C65.4024239,100.436977 72.5236555,110.979425 81.1541879,120.295401 C81.8713143,121.069838 82.6885048,121.835857 83.5890821,122.284526 C79.4614361,122.78286 71.8899159,115.483788 68.5210897,111.087173 Z M84.5823238,121.626811 C84.4993627,121.685705 84.4081056,121.733661 84.3168484,121.780776 C83.2383544,121.509024 82.2594138,120.595333 81.4049148,119.670704 C72.8433321,110.394126 65.7750488,99.8799425 58.6901732,89.0224935 C54.3264208,82.3338674 49.9792606,75.5392329 45.7067654,68.7807759 C47.3991713,70.1235492 49.1413538,71.3771407 50.9084246,72.5768867 C55.1477354,77.781395 59.3953423,83.087705 63.5682843,88.4091591 C67.6997456,93.677609 71.6818771,98.8720213 75.0832811,104.503087 C76.9167208,107.53863 78.5842383,110.718041 80.1936831,113.793126 C80.9320366,115.212461 81.811424,116.649464 82.6659231,118.038511 C83.3544999,119.176839 84.0596691,120.347138 84.7067654,121.509024 L84.5823238,121.626811 Z M65.291183,83.3479156 C70.489293,88.4140609 73.9857415,94.7906917 76.7287181,100.360676 C76.9319015,100.775354 77.2366767,101.367512 77.6091797,102.094251 C83.8655368,114.253673 84.9915117,118.800839 84.8729881,120.490675 C84.2888356,119.482157 83.6792853,118.474479 83.0697349,117.490353 C82.2062053,116.110054 81.3172777,114.68181 80.5638057,113.280482 C78.9214062,110.197728 77.2112788,107.011516 75.3318319,103.959885 C71.8523153,98.3024228 67.7632483,93.0932849 63.5387258,87.8118095 C59.6951722,83.0055744 55.7838907,78.2085917 51.8810753,73.4906756 C52.35517,73.7993715 52.8292647,74.1105907 53.3033595,74.4159221 C57.4516882,77.1075483 61.7524046,79.8908581 65.291183,83.3479156 Z M105.67189,41.75833 C106.11651,40.9864829 106.535479,40.2478611 106.937347,39.5330932 L103.354737,50.290392 C101.670312,55.3559577 99.9174842,60.580834 97.7029356,65.5330932 C94.6846511,61.0255405 101.268444,49.4733927 105.67189,41.75833 Z M98.4205677,65.6177243 C98.345175,65.738807 98.2111436,65.7635178 98.1441279,65.76846 L97.9933425,65.749515 C100.213238,60.8699613 101.964023,55.7227076 103.65617,50.7006551 L105.993342,43.76846 C104.485489,51.6116589 102.273971,59.8378748 98.4205677,65.6177243 Z M94.3638565,117.91918 C94.9250679,117.143256 95.4108926,116.469272 95.7626967,115.941038 C100.445042,108.981313 105.269784,103.858194 110.513341,100.276813 C115.48048,96.8892018 121.142851,94.6515757 126.92249,92.7753734 C111.48499,101.742727 98.149939,114.043773 87.9224906,128.775373 C89.0700421,125.300145 92.5880833,120.394385 94.3638565,117.91918 Z M134.872209,90.3143103 C138.775406,89.1778437 142.754476,88.0213364 146.632383,86.6118172 C145.587034,87.1178413 144.507965,87.5662488 143.445755,88.003801 L142.771337,88.2826987 C126.020465,95.222577 110.660581,105.879144 98.3524416,119.102572 C97.8044764,119.696274 97.2565113,120.29582 96.7085462,120.897037 C94.2216276,123.618378 91.6504067,126.429901 88.6323834,128.611817 C99.4315113,113.286635 113.695465,100.641878 130.227151,91.6879236 C131.778313,91.2194755 133.329476,90.7627178 134.872209,90.3143103 Z M123.304748,106.540865 C115.717789,111.586316 107.872373,116.803099 101.961215,121.348055 C100.952399,122.120318 99.9352469,122.930561 98.9097568,123.750932 C95.4330954,126.531922 91.8397115,129.397313 88.046232,131.26256 C88.0378947,131.155371 88.0545693,131.035523 88.0629066,130.921582 C88.2463276,130.774726 88.4547606,130.632089 88.6131696,130.526589 C88.7215547,130.458225 88.8132652,130.39408 88.8966384,130.336688 C92.0648191,128.063788 94.7160861,125.097961 97.2756426,122.230039 C97.8175682,121.6232 98.3594938,121.018894 98.9097568,120.419652 C111.015542,107.117319 126.131098,96.3959481 142.622313,89.4151985 L143.289298,89.1333015 C145.448663,88.2251542 147.674727,87.2832467 149.567298,85.8400014 C150.74286,85.3445716 151.901747,84.8280417 153.04396,84.2625597 C148.199978,89.9908086 135.110389,98.6967005 123.304748,106.540865 Z M78.6567327,76.2149251 C74.286642,65.9634069 72.3923822,54.7731693 70.5562795,43.9515651 C69.3515967,36.8447151 68.1136813,29.5422638 66.1695725,22.442937 C67.8727447,25.9955261 69.2768233,29.6977419 70.3236511,33.4969224 C71.5947991,38.1010778 72.3923822,42.9259117 73.1650408,47.5927599 C74.3198746,54.6101682 75.5079411,61.8666448 78.3493308,68.5062248 C79.3878505,70.9286726 80.6423822,73.2683659 81.8553731,75.5286485 L88.1695725,87.3240801 L87.9535604,87.4235526 C85.9512946,87.8490273 80.7753127,81.1810266 78.6567327,76.2149251 Z M82.6947791,52.1280207 C85.7184539,61.3539148 89.4856553,72.8365084 89.2791201,82.1298925 C89.2212903,84.6818612 88.8660498,86.1683302 88.4447181,86.9149393 L82.2817088,75.2290318 C81.0838048,72.9588342 79.8445939,70.6093357 78.8284408,68.1898163 C76.027824,61.5546978 74.8464429,54.2674563 73.6981074,47.2206482 C72.938058,42.495499 72.144963,37.6092171 70.8644449,32.9313109 C69.9391674,29.5070329 68.7330021,26.1510886 67.2872559,22.9149393 C73.5824477,30.3354737 78.6466899,39.7579326 82.3478,51.071801 L82.6947791,52.1280207 Z M101.600798,83.5963122 L102.361755,82.3807421 C108.04803,73.2993225 114.21931,64.3972079 120.725077,55.8326581 C119.755065,59.2495548 117.965561,62.4383218 116.209506,65.5361735 C115.599068,66.6019018 114.996992,67.6651047 114.428364,68.7367257 C113.274385,70.8993292 112.237476,73.1562152 111.225654,75.3381803 C110.665388,76.5596431 110.096761,77.7785804 109.511409,78.9890996 C104.81187,88.7027167 98.8329202,97.7336278 91.7250771,105.832658 C92.4358614,98.1814694 97.6538545,89.8652529 101.600798,83.5963122 Z M116.899726,69.3383904 C111.370544,80.456066 102.322792,98.6187133 91.6665509,106.597922 L91.8592345,106.427527 C99.0471708,98.283798 105.104138,89.197438 109.854208,79.4219417 C110.440636,78.213225 111.001932,76.9935962 111.571605,75.7748069 C112.585288,73.6049925 113.624104,71.3621515 114.771829,69.2208763 C115.333124,68.1556947 115.936308,67.0997463 116.539491,66.0429586 C118.550103,62.513338 120.61098,58.8670426 121.46549,54.8606503 C121.53251,54.7741935 121.59953,54.6843791 121.666551,54.5979223 C121.381714,59.6308844 119.262194,64.6008924 116.899726,69.3383904 Z M91.787668,107.186082 L92.017668,107.048082 L91.777668,107.228082 L91.787668,107.186082 Z M87.0817627,133.432897 C91.6519696,131.500627 95.7777343,128.23451 99.7777135,125.075975 C100.800769,124.268271 101.807053,123.469812 102.804951,122.710856 C108.691713,118.232762 116.549115,113.06127 124.146559,108.057875 C140.398047,97.3602071 155.752265,87.2559203 156.976577,81.1145109 C157.06882,80.6539262 156.884335,80.1815748 156.498592,79.9100988 C156.11285,79.6369418 155.609708,79.6159297 155.207195,79.8563079 C148.574105,83.7906088 140.917961,86.0447843 133.513387,88.2233162 C125.110915,90.6960173 116.423329,93.2536071 109.027141,98.2813765 C103.526122,102.026569 98.4863156,107.345145 93.6226092,114.543882 C93.2787955,115.055736 92.8091963,115.707111 92.2725114,116.456821 C90.436043,118.998442 88.6582745,121.561915 87.3165624,123.960654 C87.6519904,117.699055 88.1635181,111.681197 88.8427599,105.882705 C88.7505172,106.961885 88.7253601,108.036022 88.8092171,109.096712 C88.8427599,109.509389 89.0859452,109.87584 89.454916,110.064108 C89.62263,110.151518 89.8071154,110.194383 89.9916009,110.194383 C90.2096291,110.194383 90.4276573,110.136389 90.6121427,110.019562 C102.737866,102.600619 112.389807,83.1997493 118.813254,70.2832064 C121.798563,64.2872005 124.45683,57.8070765 123.702117,51.0605194 C123.643417,50.5814441 123.307989,50.1813742 122.846776,50.0485778 C122.393948,49.9216649 121.88242,50.0763138 121.588921,50.4570526 C113.840533,60.3058325 106.536588,70.6673071 99.8783419,81.2531906 L99.1152432,82.4626457 C95.1907353,88.6721342 90.0670722,96.8155741 88.9769311,104.721998 C90.6205284,91.3280605 93.2033242,79.1175233 96.7840184,67.8180697 C97.186532,68.0315524 97.6309742,68.1584653 98.1005734,68.1584653 L98.2682874,68.1542629 C99.148786,68.098791 99.9118847,67.6541755 100.389869,66.9305196 C106.352103,57.8146409 108.515613,43.4306146 110.100511,32.9270984 L110.318539,31.4898724 C110.419167,30.8393386 109.96634,30.2325099 109.320641,30.1341733 C108.674942,30.0383583 108.062786,30.4804523 107.970543,31.1318267 L107.970543,31.1351886 C107.7022,32.8514549 105.555461,36.6437143 103.27455,40.6578611 C98.41923,49.2181806 92.482154,59.6847156 94.9978641,65.5941516 C93.7064662,69.5452623 92.5408539,73.6115191 91.4926413,77.7912411 C90.7798567,69.0569416 87.5262049,59.2947315 84.834395,51.2277755 L84.4821955,50.1763313 C79.735889,35.9242608 72.8260716,24.5323541 63.9540003,16.3174731 C63.5598724,15.9476606 62.956102,15.8947102 62.5032741,16.1914007 C62.0504463,16.4855697 61.8491895,17.0537362 62.0252892,17.5681118 C64.859656,26.0939715 66.4026249,35.1611022 67.8952797,43.930702 C69.7652909,54.9485938 71.7107734,66.341341 76.2306661,76.9095744 C77.4801355,79.8386577 83.1320977,89.6328063 87.6771475,89.6328063 C87.8700186,89.6328063 88.0628897,89.6159966 88.2473751,89.5781749 C88.5073318,89.5285864 88.7421315,89.4386547 88.9601597,89.3327538 C87.5094335,96.9996399 86.4109067,105.064074 85.6645793,113.584891 C84.3815671,110.027126 82.3186848,105.647369 79.7610461,100.628845 C79.3920752,99.9186374 79.0985757,99.3395446 78.8973189,98.9335913 L78.8973189,98.9327508 C76.0964949,93.1872089 72.507415,86.5953007 67.1070238,81.2800861 C63.4257012,77.6609662 59.0735226,74.8142503 54.8555151,72.0599874 C50.7632932,69.3805276 46.5201287,66.6102956 43.0149058,63.174401 C42.6543207,62.8163553 42.1008645,62.732307 41.6564223,62.9617588 C41.1952088,63.1903702 40.9436378,63.6828933 41.0107234,64.1871831 C42.2518071,73.2358232 45.7234871,77.7895601 49.0777674,82.1928506 C51.0735642,84.8176791 52.9687325,87.297104 54.2936732,90.657355 C57.2622112,98.2099354 61.2873475,105.293526 66.2516823,111.712295 C66.3606964,111.852656 75.8616953,123.855593 82.872141,123.855593 C83.601697,123.855593 84.3060958,123.713552 84.9685662,123.426107 C84.8595521,125.414689 84.7589237,127.418401 84.6834524,129.455732 C84.1383818,144.529795 84.7337666,161.782389 93.3039526,175.4436 C93.5303665,175.803327 93.9161088,176 94.3102367,176 C94.5282649,176 94.7462931,175.941166 94.9391642,175.817615 C95.5010062,175.467974 95.6603345,174.732552 95.3165208,174.175311 C87.802933,162.211036 86.6876348,147.175635 86.9559772,133.458952 L87.0817627,133.432897 L87.0817627,133.432897 Z" id="Fill-99" fill-rule="nonzero" transform="translate(99.000000, 96.000000) rotate(-50.000000) translate(-99.000000, -96.000000) "></path>
            <path d="M353.852846,30.7141954 C353.844846,28.4831954 354.530846,26.2691954 355.681846,24.4811954 L359.649846,28.2741954 C358.568846,30.0591954 357.417846,31.6371954 355.798846,32.5621954 L353.830846,30.8281954 L353.852846,30.7141954 Z M366.505846,26.0131954 C368.038846,27.7661954 369.724846,29.8831954 370.612846,32.2721954 C371.379846,34.3441954 371.063846,38.3191954 369.983846,40.3881954 C368.433846,42.2641954 367.031846,44.2531954 365.784846,46.3341954 C365.676846,44.7471954 365.323846,43.1651954 364.586846,41.6801954 C363.372846,39.2331954 361.320846,37.4261954 359.509846,35.8311954 L358.013846,34.5121954 C360.224846,32.9381954 361.604846,30.5771954 362.938846,28.2771954 C363.488846,27.3261954 364.038846,26.3751954 364.648846,25.4941954 C364.854846,25.1941954 365.003846,25.0251954 365.083846,24.9861954 C365.180846,24.9391954 365.705846,25.0991954 366.505846,26.0131954 Z M367.952846,77.6421954 C366.117846,79.5931954 364.411846,80.9501954 362.707846,81.8141954 C362.886846,80.8261954 363.024846,79.8341954 363.132846,78.8381954 C369.187846,73.6251954 373.523846,66.5611954 375.353846,58.7771954 C376.231846,55.0631954 376.627846,50.8691954 376.606846,45.5841954 C376.595846,43.0021954 376.474846,40.4031954 376.283846,37.8311954 L376.290846,37.8231954 C381.073846,51.2651954 377.730846,67.2521954 367.952846,77.6421954 Z M351.752846,76.3981954 C350.748846,75.7011954 349.722846,75.0251954 348.696846,74.3491954 C345.706846,72.3811954 342.884846,70.5261954 340.534846,68.0881954 C334.839846,62.1811954 332.223846,52.7431954 333.355846,42.1931954 C333.486846,40.9731954 333.825846,40.5131954 333.969846,40.4831954 C334.164846,40.4401954 334.687846,40.6821954 334.938846,40.7981954 L341.681846,43.9251954 C345.053846,45.4881954 348.527846,47.1001954 351.297846,49.5151954 C351.652846,49.8241954 351.995846,50.1471954 352.327846,50.4861954 C353.868846,52.0621954 355.241846,54.0951954 356.523846,56.7011954 C360.623846,65.0491954 361.629846,74.7131954 359.413846,83.7051954 C357.568846,80.8321954 354.957846,78.6301954 351.752846,76.3981954 Z M347.447846,30.4391954 C345.938846,33.2031954 346.022846,36.6221954 346.273846,40.1731954 C346.338846,41.1071954 346.420846,42.1721954 346.699846,43.1931954 C345.406846,42.5341954 344.112846,41.9291954 342.872846,41.3541954 L340.774846,40.3821954 C341.134846,36.4311954 344.346846,33.0621954 347.447846,30.4391954 Z M347.595846,43.6601954 C347.152846,42.5241954 347.056846,41.2261954 346.978846,40.1231954 C346.726846,36.5381954 346.644846,33.0991954 348.261846,30.4441954 C348.855846,33.8011954 350.362846,36.4351954 351.953846,39.2131954 C352.445846,40.0711954 352.952846,40.9551954 353.449846,41.8891954 C355.065846,44.9291954 356.654846,48.3821954 357.054846,51.9201954 C356.206846,50.6291954 355.313846,49.4861954 354.352846,48.5041954 C352.379846,46.4811954 350.009846,44.9501954 347.595846,43.6601954 Z M371.683846,51.5921954 C371.298846,53.3431954 370.908846,55.1131954 370.493846,56.9111954 C368.967846,63.5271954 366.803846,71.5261954 363.295846,76.9881954 C363.569846,72.7621954 363.213846,68.5061954 362.243846,64.3821954 L362.248846,64.3681954 C362.686846,61.4481954 363.419846,58.5911954 364.409846,55.8331954 L364.421846,55.8081954 L364.431846,55.7691954 C366.616846,49.7031954 370.080846,44.1311954 374.596846,39.4861954 C373.473846,43.5171954 372.592846,47.4651954 371.683846,51.5921954 Z M375.636846,38.4551954 C375.800846,40.8241954 375.888846,43.2151954 375.898846,45.5881954 C375.919846,50.8151954 375.527846,54.9561954 374.665846,58.6151954 C373.013846,65.6391954 369.299846,72.0851954 364.093846,77.0531954 C367.543846,71.5081954 369.673846,63.6161954 371.185846,57.0701954 C371.600846,55.2721954 371.989846,53.4981954 372.376846,51.7451954 C373.372846,47.2191954 374.321846,42.9151954 375.608846,38.4821954 L375.636846,38.4551954 Z M357.634846,37.9561954 C359.329846,39.4481954 361.081846,40.9921954 362.048846,42.9401954 C363.749846,46.3671954 362.869846,50.5791954 361.713846,54.9621954 C361.264846,56.2241954 360.866846,57.5051954 360.523846,58.8031954 C360.084846,57.6691954 359.604846,56.5481954 359.066846,55.4531954 C358.667846,54.6411954 358.255846,53.8901954 357.834846,53.1721954 C357.722846,49.0541954 355.925846,45.0371954 354.075846,41.5581954 C353.574846,40.6171954 353.065846,39.7271954 352.568846,38.8611954 C350.946846,36.0281954 349.538846,33.5401954 348.973846,30.3251954 L357.634846,37.9561954 Z M347.927846,104.594195 C344.292846,101.411195 341.235846,97.4431954 338.316846,93.5861954 C337.466846,92.4631954 336.578846,91.2621954 335.797846,90.0021954 C336.465846,90.7911954 337.120846,91.6071954 337.760846,92.4211954 C338.757846,93.6901954 339.788846,95.0021954 340.844846,96.1141954 C344.039846,99.4771954 347.422846,102.736195 350.900846,105.795195 L351.052846,105.928195 C352.984846,107.612195 355.068846,109.112195 357.354846,109.401195 C356.315846,109.844195 353.790846,109.639195 347.927846,104.594195 Z M353.979846,102.520195 L353.982846,102.522195 L354.316846,102.866195 C355.353846,103.935195 357.975846,106.654195 358.100846,108.288195 C358.055846,108.440195 358.036846,108.591195 358.042846,108.745195 C355.706846,108.706195 353.533846,107.151195 351.518846,105.394195 L351.369846,105.265195 C347.906846,102.217195 344.537846,98.9731954 341.358846,95.6261954 C340.325846,94.5371954 339.349846,93.2981954 338.318846,91.9841954 C337.185846,90.5421954 336.024846,89.0851954 334.771846,87.8181954 C342.057846,90.5471954 348.033846,96.3181954 353.979846,102.520195 Z M388.060846,84.7711954 C389.089846,84.2901954 390.151846,83.7921954 391.165846,83.1601954 C392.020846,82.6261954 392.829846,81.9861954 393.591846,81.2691954 C399.462846,79.1511954 405.485846,77.3741954 411.557846,76.0201954 C413.593846,75.5651954 415.705846,75.1791954 417.700846,75.4091954 C418.850846,75.8201954 419.974846,76.3041954 421.052846,76.8821954 C420.878846,77.1641954 420.688846,77.4391954 420.498846,77.7141954 C413.710846,81.3971954 406.441846,84.0191954 398.846846,85.4911954 C396.241846,85.9961954 393.105846,86.4351954 389.987846,86.1381954 C389.274846,85.6971954 388.558846,85.2651954 387.822846,84.8841954 L388.060846,84.7711954 Z M385.179846,82.8661954 L385.177846,82.8641954 C385.221846,79.4001954 387.106846,76.2431954 389.101846,72.9071954 C389.497846,72.2461954 389.891846,71.5881954 390.267846,70.9301954 C393.138846,65.9231954 395.161846,60.5481954 396.305846,54.9241954 C397.334846,56.5501954 397.786846,59.0211954 397.654846,62.3091954 C397.482846,66.6251954 396.897846,69.9571954 395.817846,72.8001954 C394.495846,76.2791954 392.310846,79.1051954 389.663846,80.7561954 C388.796846,81.3001954 387.855846,81.7391954 386.860846,82.2061954 C386.340846,82.4481954 385.811846,82.6971954 385.284846,82.9651954 L385.179846,82.8661954 Z M415.349846,74.6851954 C414.001846,74.7891954 412.661846,75.0481954 411.404846,75.3281954 C405.769846,76.5841954 400.176846,78.1961954 394.707846,80.1091954 C395.597846,79.1001954 396.404846,77.9741954 397.098846,76.7361954 L397.144846,76.7231954 C402.691846,73.8191954 409.300846,73.1591954 415.349846,74.6851954 Z M408.278846,87.0821954 C405.425846,87.6071954 402.528846,88.0891954 399.607846,88.3911954 C397.959846,88.5631954 396.239846,88.6711954 394.554846,88.5021954 C393.564846,88.1891954 392.637846,87.8181954 391.885846,87.4171954 C391.658846,87.2551954 391.433846,87.0891954 391.203846,86.9331954 C393.969846,87.0301954 396.681846,86.6331954 398.982846,86.1861954 C406.155846,84.7971954 413.043846,82.3931954 419.512846,79.0421954 C416.803846,82.3861954 412.944846,85.1351954 408.278846,87.0821954 Z M416.277846,96.1371954 L416.153846,96.1321954 C414.859846,96.0621954 413.519846,95.7641954 412.220846,95.4761954 L397.507846,92.2191954 L397.389846,92.2171954 L397.216846,92.0431954 C398.836846,92.2951954 400.372846,92.3421954 401.543846,92.1001954 C405.921846,91.1931954 409.902846,89.7031954 413.350846,87.7471954 C415.630846,89.7921954 416.717846,92.9431954 416.277846,96.1371954 Z M403.017846,105.497195 C403.402846,106.302195 404.565846,109.010195 403.369846,110.041195 C402.354846,110.914195 400.299846,110.004195 399.462846,109.570195 C391.087846,105.238195 385.163846,96.3641954 384.382846,86.9601954 C384.364846,86.7371954 384.369846,86.5451954 384.372846,86.3991954 C385.870846,87.0221954 387.325846,87.7861954 388.733846,88.6731954 L388.819846,88.7511954 C389.268846,89.1421954 389.839846,89.5161954 390.485846,89.8671954 C395.535846,93.5411954 399.865846,98.8971954 403.017846,105.497195 Z M404.398846,88.4631954 C403.287846,88.7921954 402.144846,89.0801954 400.968846,89.3241954 C400.159846,89.4911954 399.013846,89.4481954 397.765846,89.2571954 C398.411846,89.2191954 399.052846,89.1631954 399.681846,89.0981954 C401.264846,88.9331954 402.834846,88.7081954 404.398846,88.4631954 Z M369.653846,117.325195 L372.257846,116.337195 C370.799846,117.236195 369.300846,118.073195 367.827846,118.884195 C366.262846,119.748195 364.642846,120.638195 363.102846,121.604195 C361.481846,122.617195 360.064846,123.989195 358.696846,125.319195 C358.325846,125.679195 357.949846,126.024195 357.576846,126.375195 C357.849846,124.825195 359.796846,122.516195 361.236846,121.433195 C363.701846,119.578195 366.727846,118.432195 369.653846,117.325195 Z M358.464846,126.528195 C358.707846,126.296195 358.948846,126.062195 359.190846,125.826195 C360.531846,124.524195 361.919846,123.176195 363.475846,122.204195 C365.001846,121.250195 366.611846,120.363195 368.169846,119.506195 C369.976846,118.511195 371.828846,117.492195 373.594846,116.340195 C369.532846,120.966195 364.283846,124.507195 358.464846,126.528195 Z M367.750846,124.190195 C364.331846,126.621195 359.867846,128.645195 358.317846,127.825195 C358.088846,127.703195 357.942846,127.582195 357.827846,127.463195 C363.908846,125.523195 369.414846,121.967195 373.701846,117.251195 C372.376846,119.937195 370.334846,122.354195 367.750846,124.190195 Z M349.968846,27.4251954 C349.802846,27.2871954 349.490846,27.0001954 349.049846,26.8541954 C347.841846,26.4491954 346.843846,27.2621954 346.518846,27.5291954 C342.971846,30.4081954 338.968846,34.2531954 338.085846,39.1341954 L336.130846,38.2271954 C335.476846,37.9241954 334.490846,37.4681954 333.364846,37.7151954 C332.254846,37.9561954 330.863846,38.8791954 330.536846,41.8891954 C329.313846,53.2761954 332.214846,63.5421954 338.496846,70.0561954 C341.063846,72.7241954 344.155846,74.7531954 347.138846,76.7171954 C348.144846,77.3791954 349.150846,78.0391954 350.134846,78.7251954 C354.023846,81.4331954 356.918846,84.0411954 358.411846,87.9921954 L358.449846,88.0951954 C360.336846,93.1781954 360.657846,98.8161954 359.432846,104.490195 C358.566846,103.245195 357.450846,102.027195 356.348846,100.893195 L356.024846,100.558195 L356.026846,100.559195 C349.062846,93.2961954 342.046846,86.5881954 332.782846,84.2151954 C332.313846,84.0951954 331.814846,84.2211954 331.462846,84.5531954 C331.109846,84.8821954 330.948846,85.3691954 331.037846,85.8451954 C331.727846,89.5721954 334.027846,92.6131954 336.056846,95.2941954 C339.021846,99.2121954 342.084846,103.261195 345.908846,106.593195 L346.077846,106.741195 C349.246846,109.467195 353.610846,112.756195 357.157846,112.342195 C356.276846,115.089195 355.397846,117.917195 354.868846,120.829195 C352.585846,133.381195 357.477846,147.132195 367.088846,155.511195 C367.436846,155.815195 367.793846,156.113195 368.154846,156.402195 C368.765846,156.893195 369.656846,156.794195 370.147846,156.185195 C370.636846,155.572195 370.582846,154.658195 369.927846,154.193195 C362.780846,148.461195 358.221846,139.598195 357.311846,130.459195 C361.090846,132.048195 367.478846,127.860195 369.392846,126.500195 C373.901846,123.296195 377.014846,118.537195 377.939846,113.450195 C378.030846,112.946195 377.850846,112.424195 377.451846,112.107195 C377.059846,111.782195 376.521846,111.691195 376.044846,111.872195 L368.648846,114.675195 C365.536846,115.852195 362.322846,117.071195 359.533846,119.167195 L359.532846,119.168195 C359.116846,119.481195 358.466846,120.047195 357.776846,120.776195 C358.332846,117.974195 359.219846,115.181195 360.090846,112.473195 C360.578846,110.955195 361.052846,109.433195 361.489846,107.900195 C363.925846,103.500195 366.691846,98.9791954 370.231846,95.0091954 C373.667846,91.1601954 377.535846,88.2611954 381.539846,86.5191954 C381.533846,86.7361954 381.539846,86.9621954 381.558846,87.1931954 C382.417846,97.5471954 388.925846,107.314195 398.161846,112.090195 C401.053846,113.581195 403.559846,113.617195 405.220846,112.188195 C407.109846,110.560195 407.235846,107.750195 405.573846,104.275195 C404.087846,101.163195 402.338846,98.3211954 400.393846,95.7601954 L411.607846,98.2421954 C413.015846,98.5561954 414.471846,98.8781954 415.998846,98.9631954 C416.425846,98.9861954 417.560846,99.0491954 418.355846,98.2221954 C418.926846,97.6421954 419.043846,96.8891954 419.092846,96.5711954 C419.676846,92.8611954 418.419846,88.9291954 415.815846,86.2041954 C419.469846,83.6841954 422.360846,80.5751954 424.238846,77.0181954 C424.588846,76.3601954 424.347846,75.5411954 423.726846,75.1501954 C416.335846,70.6241954 406.862846,69.8421954 398.783846,72.9001954 C399.772846,69.9731954 400.318846,66.6141954 400.485846,62.4221954 C400.721846,56.5931954 399.243846,52.6921954 396.088846,50.8531954 C395.683846,50.6151954 395.186846,50.5951954 394.762846,50.7961954 C394.338846,50.9991954 394.042846,51.3981954 393.972846,51.8621954 C393.023846,58.1001954 390.948846,64.0421954 387.809846,69.5211954 C387.440846,70.1631954 387.055846,70.8061954 386.670846,71.4541954 C384.517846,75.0521954 382.293846,78.7751954 382.345846,83.1271954 L382.345846,83.1611954 C377.274846,84.9301954 372.368846,88.3601954 368.117846,93.1221954 C366.174846,95.3001954 364.470846,97.6221954 362.920846,99.9871954 C363.197846,95.6831954 362.653846,91.4641954 361.259846,87.5291954 C361.516846,86.7531954 361.743846,85.9691954 361.953846,85.1811954 C364.683846,84.2961954 367.257846,82.5171954 370.017846,79.5851954 C380.535846,68.4061954 384.111846,51.1881954 378.915846,36.7451954 C378.764846,36.3211954 378.349846,35.1921954 377.217846,34.8231954 C375.847846,34.3771954 374.762846,35.3781954 374.405846,35.7071954 C374.207846,35.8901954 374.019846,36.0811954 373.825846,36.2661954 C373.935846,34.4441954 373.769846,32.6351954 373.269846,31.2881954 C372.222846,28.4671954 370.340846,26.0951954 368.639846,24.1471954 C366.512846,21.7181954 364.754846,22.0161954 363.893846,22.4151954 C363.169846,22.7521954 362.709846,23.3181954 362.318846,23.8791954 C361.900846,24.4841954 361.510846,25.1211954 361.128846,25.7671954 L357.505846,22.3041954 C356.268846,21.0881954 355.171846,21.3311954 354.655846,21.5901954 C354.197846,21.8171954 353.931846,22.1681954 353.776846,22.3661954 C352.433846,24.1701954 351.546846,26.2931954 351.192846,28.5041954 L349.968846,27.4251954 L349.968846,27.4251954 Z" id="Fill-70" fill-rule="nonzero" transform="translate(377.331313, 89.046905) scale(-1, 1) rotate(-40.000000) translate(-377.331313, -89.046905) "></path>
        </g>
    </g>
</svg>