<?xml version="1.0" encoding="UTF-8"?>
<svg width="431px" height="111px" viewBox="0 0 431 111" version="1.1" xmlns="http://www.w3.org/2000/svg" xmlns:xlink="http://www.w3.org/1999/xlink">
    <!-- Generator: Sketch 53.2 (72643) - https://sketchapp.com -->
    <title>logo_green</title>
    <desc>Created with Sketch.</desc>
    <g id="Page-1" stroke="none" stroke-width="1" fill="none" fill-rule="evenodd">
        <g id="logo_green" transform="translate(-14.000000, -41.000000)" fill="#000000">
            <g id="URBAN-PLANTERY" transform="translate(137.000000, 50.000000)" font-family="Montserrat-Bold, Montserrat" font-size="36" font-weight="bold">
                <g id="URBAN" transform="translate(32.000000, 0.000000)">
                    <g id="Group">
                        <text id="URBAN">
                            <tspan x="0.187099" y="35.3861295">URBAN</tspan>
                        </text>
                    </g>
                </g>
                <g id="PLANTERY" transform="translate(0.000000, 44.000000)">
                    <g id="Group">
                        <text id="PLANTERY">
                            <tspan x="0.723099" y="35.386129">PLANTERY</tspan>
                        </text>
                    </g>
                </g>
            </g>
            <path d="M68.5210898,111.087173 C63.7263496,104.836118 59.8321867,97.9385753 56.9553426,90.5847883 C55.5210898,86.9104202 53.4530975,84.1771617 51.4518147,81.5348154 C48.8001149,78.0254361 46.0650283,74.408309 44.5890822,68.3087737 C49.0752913,75.3957165 53.6615645,82.5323243 58.2645151,89.5510829 C65.402424,100.436977 72.5236556,110.979425 81.154188,120.295401 C81.8713144,121.069838 82.6885049,121.835857 83.5890822,122.284526 C79.4614362,122.78286 71.889916,115.483788 68.5210898,111.087173 Z M84.5823239,121.626811 C84.4993628,121.685705 84.4081057,121.733661 84.3168485,121.780776 C83.2383545,121.509024 82.2594139,120.595333 81.4049149,119.670704 C72.8433322,110.394126 65.7750489,99.8799425 58.6901733,89.0224935 C54.3264209,82.3338674 49.9792607,75.5392329 45.7067655,68.7807759 C47.3991714,70.1235492 49.1413539,71.3771407 50.9084247,72.5768867 C55.1477355,77.781395 59.3953424,83.087705 63.5682844,88.4091591 C67.6997457,93.677609 71.6818772,98.8720213 75.0832812,104.503087 C76.9167209,107.53863 78.5842384,110.718041 80.1936832,113.793126 C80.9320367,115.212461 81.8114241,116.649464 82.6659232,118.038511 C83.3545,119.176839 84.0596692,120.347138 84.7067655,121.509024 L84.5823239,121.626811 Z M65.2911831,83.3479156 C70.4892931,88.4140609 73.9857416,94.7906917 76.7287182,100.360676 C76.9319016,100.775354 77.2366768,101.367512 77.6091798,102.094251 C83.8655369,114.253673 84.9915118,118.800839 84.8729882,120.490675 C84.2888357,119.482157 83.6792854,118.474479 83.069735,117.490353 C82.2062054,116.110054 81.3172778,114.68181 80.5638058,113.280482 C78.9214063,110.197728 77.2112789,107.011516 75.331832,103.959885 C71.8523154,98.3024228 67.7632484,93.0932849 63.5387259,87.8118095 C59.6951723,83.0055744 55.7838908,78.2085917 51.8810754,73.4906756 C52.3551701,73.7993715 52.8292648,74.1105907 53.3033596,74.4159221 C57.4516883,77.1075483 61.7524047,79.8908581 65.2911831,83.3479156 Z M105.67189,41.75833 C106.11651,40.9864829 106.535479,40.2478611 106.937347,39.5330932 L103.354737,50.290392 C101.670312,55.3559577 99.9174843,60.580834 97.7029357,65.5330932 C94.6846512,61.0255405 101.268444,49.4733927 105.67189,41.75833 Z M98.4205678,65.6177243 C98.3451751,65.738807 98.2111437,65.7635178 98.144128,65.76846 L97.9933426,65.749515 C100.213238,60.8699613 101.964023,55.7227076 103.65617,50.7006551 L105.993342,43.76846 C104.485489,51.6116589 102.273971,59.8378748 98.4205678,65.6177243 Z M94.3638566,117.91918 C94.925068,117.143256 95.4108927,116.469272 95.7626968,115.941038 C100.445042,108.981313 105.269784,103.858194 110.513341,100.276813 C115.48048,96.8892018 121.142851,94.6515757 126.92249,92.7753734 C111.48499,101.742727 98.1499391,114.043773 87.9224907,128.775373 C89.0700422,125.300145 92.5880834,120.394385 94.3638566,117.91918 Z M134.872209,90.3143103 C138.775406,89.1778437 142.754476,88.0213364 146.632383,86.6118172 C145.587034,87.1178413 144.507965,87.5662488 143.445755,88.003801 L142.771337,88.2826987 C126.020465,95.222577 110.660581,105.879144 98.3524417,119.102572 C97.8044765,119.696274 97.2565114,120.29582 96.7085463,120.897037 C94.2216277,123.618378 91.6504068,126.429901 88.6323835,128.611817 C99.4315114,113.286635 113.695465,100.641878 130.227151,91.6879236 C131.778313,91.2194755 133.329476,90.7627178 134.872209,90.3143103 Z M123.304748,106.540865 C115.717789,111.586316 107.872373,116.803099 101.961215,121.348055 C100.952399,122.120318 99.935247,122.930561 98.9097569,123.750932 C95.4330955,126.531922 91.8397116,129.397313 88.0462321,131.26256 C88.0378948,131.155371 88.0545694,131.035523 88.0629067,130.921582 C88.2463277,130.774726 88.4547607,130.632089 88.6131697,130.526589 C88.7215548,130.458225 88.8132653,130.39408 88.8966385,130.336688 C92.0648192,128.063788 94.7160862,125.097961 97.2756427,122.230039 C97.8175683,121.6232 98.3594939,121.018894 98.9097569,120.419652 C111.015542,107.117319 126.131098,96.3959481 142.622313,89.4151985 L143.289298,89.1333015 C145.448663,88.2251542 147.674727,87.2832467 149.567298,85.8400014 C150.74286,85.3445716 151.901747,84.8280417 153.04396,84.2625597 C148.199978,89.9908086 135.110389,98.6967005 123.304748,106.540865 Z M78.6567328,76.2149251 C74.2866421,65.9634069 72.3923823,54.7731693 70.5562796,43.9515651 C69.3515968,36.8447151 68.1136814,29.5422638 66.1695726,22.442937 C67.8727448,25.9955261 69.2768234,29.6977419 70.3236512,33.4969224 C71.5947992,38.1010778 72.3923823,42.9259117 73.1650409,47.5927599 C74.3198747,54.6101682 75.5079412,61.8666448 78.3493309,68.5062248 C79.3878506,70.9286726 80.6423823,73.2683659 81.8553732,75.5286485 L88.1695726,87.3240801 L87.9535605,87.4235526 C85.9512947,87.8490273 80.7753128,81.1810266 78.6567328,76.2149251 Z M82.6947792,52.1280207 C85.718454,61.3539148 89.4856554,72.8365084 89.2791202,82.1298925 C89.2212904,84.6818612 88.8660499,86.1683302 88.4447182,86.9149393 L82.2817089,75.2290318 C81.0838049,72.9588342 79.844594,70.6093357 78.8284409,68.1898163 C76.0278241,61.5546978 74.846443,54.2674563 73.6981075,47.2206482 C72.9380581,42.495499 72.1449631,37.6092171 70.864445,32.9313109 C69.9391675,29.5070329 68.7330022,26.1510886 67.287256,22.9149393 C73.5824478,30.3354737 78.64669,39.7579326 82.3478001,51.071801 L82.6947792,52.1280207 Z M101.600798,83.5963122 L102.361755,82.3807421 C108.04803,73.2993225 114.21931,64.3972079 120.725077,55.8326581 C119.755065,59.2495548 117.965561,62.4383218 116.209506,65.5361735 C115.599068,66.6019018 114.996992,67.6651047 114.428364,68.7367257 C113.274385,70.8993292 112.237476,73.1562152 111.225654,75.3381803 C110.665388,76.5596431 110.096761,77.7785804 109.511409,78.9890996 C104.81187,88.7027167 98.8329203,97.7336278 91.7250772,105.832658 C92.4358615,98.1814694 97.6538546,89.8652529 101.600798,83.5963122 Z M116.899726,69.3383904 C111.370544,80.456066 102.322792,98.6187133 91.666551,106.597922 L91.8592346,106.427527 C99.0471709,98.283798 105.104138,89.197438 109.854208,79.4219417 C110.440636,78.213225 111.001932,76.9935962 111.571605,75.7748069 C112.585288,73.6049925 113.624104,71.3621515 114.771829,69.2208763 C115.333124,68.1556947 115.936308,67.0997463 116.539491,66.0429586 C118.550103,62.513338 120.61098,58.8670426 121.46549,54.8606503 C121.53251,54.7741935 121.59953,54.6843791 121.666551,54.5979223 C121.381714,59.6308844 119.262194,64.6008924 116.899726,69.3383904 Z M91.7876681,107.186082 L92.0176681,107.048082 L91.7776681,107.228082 L91.7876681,107.186082 Z M87.0817628,133.432897 C91.6519697,131.500627 95.7777344,128.23451 99.7777136,125.075975 C100.800769,124.268271 101.807053,123.469812 102.804951,122.710856 C108.691713,118.232762 116.549115,113.06127 124.146559,108.057875 C140.398047,97.3602071 155.752265,87.2559203 156.976577,81.1145109 C157.06882,80.6539262 156.884335,80.1815748 156.498592,79.9100988 C156.11285,79.6369418 155.609708,79.6159297 155.207195,79.8563079 C148.574105,83.7906088 140.917961,86.0447843 133.513387,88.2233162 C125.110915,90.6960173 116.423329,93.2536071 109.027141,98.2813765 C103.526122,102.026569 98.4863157,107.345145 93.6226093,114.543882 C93.2787956,115.055736 92.8091964,115.707111 92.2725115,116.456821 C90.4360431,118.998442 88.6582746,121.561915 87.3165625,123.960654 C87.6519905,117.699055 88.1635182,111.681197 88.84276,105.882705 C88.7505173,106.961885 88.7253602,108.036022 88.8092172,109.096712 C88.84276,109.509389 89.0859453,109.87584 89.4549161,110.064108 C89.6226301,110.151518 89.8071155,110.194383 89.991601,110.194383 C90.2096292,110.194383 90.4276574,110.136389 90.6121428,110.019562 C102.737866,102.600619 112.389807,83.1997493 118.813254,70.2832064 C121.798563,64.2872005 124.45683,57.8070765 123.702117,51.0605194 C123.643417,50.5814441 123.307989,50.1813742 122.846776,50.0485778 C122.393948,49.9216649 121.88242,50.0763138 121.588921,50.4570526 C113.840533,60.3058325 106.536588,70.6673071 99.878342,81.2531906 L99.1152433,82.4626457 C95.1907354,88.6721342 90.0670723,96.8155741 88.9769312,104.721998 C90.6205285,91.3280605 93.2033243,79.1175233 96.7840185,67.8180697 C97.1865321,68.0315524 97.6309743,68.1584653 98.1005735,68.1584653 L98.2682875,68.1542629 C99.1487861,68.098791 99.9118848,67.6541755 100.389869,66.9305196 C106.352103,57.8146409 108.515613,43.4306146 110.100511,32.9270984 L110.318539,31.4898724 C110.419167,30.8393386 109.96634,30.2325099 109.320641,30.1341733 C108.674942,30.0383583 108.062786,30.4804523 107.970543,31.1318267 L107.970543,31.1351886 C107.7022,32.8514549 105.555461,36.6437143 103.27455,40.6578611 C98.4192301,49.2181806 92.4821541,59.6847156 94.9978642,65.5941516 C93.7064663,69.5452623 92.540854,73.6115191 91.4926414,77.7912411 C90.7798568,69.0569416 87.526205,59.2947315 84.8343951,51.2277755 L84.4821956,50.1763313 C79.7358891,35.9242608 72.8260717,24.5323541 63.9540004,16.3174731 C63.5598725,15.9476606 62.9561021,15.8947102 62.5032742,16.1914007 C62.0504464,16.4855697 61.8491896,17.0537362 62.0252893,17.5681118 C64.8596561,26.0939715 66.402625,35.1611022 67.8952798,43.930702 C69.765291,54.9485938 71.7107735,66.341341 76.2306662,76.9095744 C77.4801356,79.8386577 83.1320978,89.6328063 87.6771476,89.6328063 C87.8700187,89.6328063 88.0628898,89.6159966 88.2473752,89.5781749 C88.5073319,89.5285864 88.7421316,89.4386547 88.9601598,89.3327538 C87.5094336,96.9996399 86.4109068,105.064074 85.6645794,113.584891 C84.3815672,110.027126 82.3186849,105.647369 79.7610462,100.628845 C79.3920753,99.9186374 79.0985758,99.3395446 78.897319,98.9335913 L78.897319,98.9327508 C76.096495,93.1872089 72.5074151,86.5953007 67.1070239,81.2800861 C63.4257013,77.6609662 59.0735227,74.8142503 54.8555152,72.0599874 C50.7632933,69.3805276 46.5201288,66.6102956 43.0149059,63.174401 C42.6543208,62.8163553 42.1008646,62.732307 41.6564224,62.9617588 C41.1952089,63.1903702 40.9436379,63.6828933 41.0107235,64.1871831 C42.2518072,73.2358232 45.7234872,77.7895601 49.0777675,82.1928506 C51.0735643,84.8176791 52.9687326,87.297104 54.2936733,90.657355 C57.2622113,98.2099354 61.2873476,105.293526 66.2516824,111.712295 C66.3606965,111.852656 75.8616954,123.855593 82.8721411,123.855593 C83.6016971,123.855593 84.3060959,123.713552 84.9685663,123.426107 C84.8595522,125.414689 84.7589238,127.418401 84.6834525,129.455732 C84.1383819,144.529795 84.7337667,161.782389 93.3039527,175.4436 C93.5303666,175.803327 93.9161089,176 94.3102368,176 C94.528265,176 94.7462932,175.941166 94.9391643,175.817615 C95.5010063,175.467974 95.6603346,174.732552 95.3165209,174.175311 C87.8029331,162.211036 86.6876349,147.175635 86.9559773,133.458952 L87.0817628,133.432897 L87.0817628,133.432897 Z" id="Fill-99" fill-rule="nonzero" transform="translate(99.000000, 96.000000) rotate(-50.000000) translate(-99.000000, -96.000000) "></path>
            <path d="M353.852847,30.7141957 C353.844847,28.4831957 354.530847,26.2691957 355.681847,24.4811957 L359.649847,28.2741957 C358.568847,30.0591957 357.417847,31.6371957 355.798847,32.5621957 L353.830847,30.8281957 L353.852847,30.7141957 Z M366.505847,26.0131957 C368.038847,27.7661957 369.724847,29.8831957 370.612847,32.2721957 C371.379847,34.3441957 371.063847,38.3191957 369.983847,40.3881957 C368.433847,42.2641957 367.031847,44.2531957 365.784847,46.3341957 C365.676847,44.7471957 365.323847,43.1651957 364.586847,41.6801957 C363.372847,39.2331957 361.320847,37.4261957 359.509847,35.8311957 L358.013847,34.5121957 C360.224847,32.9381957 361.604847,30.5771957 362.938847,28.2771957 C363.488847,27.3261957 364.038847,26.3751957 364.648847,25.4941957 C364.854847,25.1941957 365.003847,25.0251957 365.083847,24.9861957 C365.180847,24.9391957 365.705847,25.0991957 366.505847,26.0131957 Z M367.952847,77.6421957 C366.117847,79.5931957 364.411847,80.9501957 362.707847,81.8141957 C362.886847,80.8261957 363.024847,79.8341957 363.132847,78.8381957 C369.187847,73.6251957 373.523847,66.5611957 375.353847,58.7771957 C376.231847,55.0631957 376.627847,50.8691957 376.606847,45.5841957 C376.595847,43.0021957 376.474847,40.4031957 376.283847,37.8311957 L376.290847,37.8231957 C381.073847,51.2651957 377.730847,67.2521957 367.952847,77.6421957 Z M351.752847,76.3981957 C350.748847,75.7011957 349.722847,75.0251957 348.696847,74.3491957 C345.706847,72.3811957 342.884847,70.5261957 340.534847,68.0881957 C334.839847,62.1811957 332.223847,52.7431957 333.355847,42.1931957 C333.486847,40.9731957 333.825847,40.5131957 333.969847,40.4831957 C334.164847,40.4401957 334.687847,40.6821957 334.938847,40.7981957 L341.681847,43.9251957 C345.053847,45.4881957 348.527847,47.1001957 351.297847,49.5151957 C351.652847,49.8241957 351.995847,50.1471957 352.327847,50.4861957 C353.868847,52.0621957 355.241847,54.0951957 356.523847,56.7011957 C360.623847,65.0491957 361.629847,74.7131957 359.413847,83.7051957 C357.568847,80.8321957 354.957847,78.6301957 351.752847,76.3981957 Z M347.447847,30.4391957 C345.938847,33.2031957 346.022847,36.6221957 346.273847,40.1731957 C346.338847,41.1071957 346.420847,42.1721957 346.699847,43.1931957 C345.406847,42.5341957 344.112847,41.9291957 342.872847,41.3541957 L340.774847,40.3821957 C341.134847,36.4311957 344.346847,33.0621957 347.447847,30.4391957 Z M347.595847,43.6601957 C347.152847,42.5241957 347.056847,41.2261957 346.978847,40.1231957 C346.726847,36.5381957 346.644847,33.0991957 348.261847,30.4441957 C348.855847,33.8011957 350.362847,36.4351957 351.953847,39.2131957 C352.445847,40.0711957 352.952847,40.9551957 353.449847,41.8891957 C355.065847,44.9291957 356.654847,48.3821957 357.054847,51.9201957 C356.206847,50.6291957 355.313847,49.4861957 354.352847,48.5041957 C352.379847,46.4811957 350.009847,44.9501957 347.595847,43.6601957 Z M371.683847,51.5921957 C371.298847,53.3431957 370.908847,55.1131957 370.493847,56.9111957 C368.967847,63.5271957 366.803847,71.5261957 363.295847,76.9881957 C363.569847,72.7621957 363.213847,68.5061957 362.243847,64.3821957 L362.248847,64.3681957 C362.686847,61.4481957 363.419847,58.5911957 364.409847,55.8331957 L364.421847,55.8081957 L364.431847,55.7691957 C366.616847,49.7031957 370.080847,44.1311957 374.596847,39.4861957 C373.473847,43.5171957 372.592847,47.4651957 371.683847,51.5921957 Z M375.636847,38.4551957 C375.800847,40.8241957 375.888847,43.2151957 375.898847,45.5881957 C375.919847,50.8151957 375.527847,54.9561957 374.665847,58.6151957 C373.013847,65.6391957 369.299847,72.0851957 364.093847,77.0531957 C367.543847,71.5081957 369.673847,63.6161957 371.185847,57.0701957 C371.600847,55.2721957 371.989847,53.4981957 372.376847,51.7451957 C373.372847,47.2191957 374.321847,42.9151957 375.608847,38.4821957 L375.636847,38.4551957 Z M357.634847,37.9561957 C359.329847,39.4481957 361.081847,40.9921957 362.048847,42.9401957 C363.749847,46.3671957 362.869847,50.5791957 361.713847,54.9621957 C361.264847,56.2241957 360.866847,57.5051957 360.523847,58.8031957 C360.084847,57.6691957 359.604847,56.5481957 359.066847,55.4531957 C358.667847,54.6411957 358.255847,53.8901957 357.834847,53.1721957 C357.722847,49.0541957 355.925847,45.0371957 354.075847,41.5581957 C353.574847,40.6171957 353.065847,39.7271957 352.568847,38.8611957 C350.946847,36.0281957 349.538847,33.5401957 348.973847,30.3251957 L357.634847,37.9561957 Z M347.927847,104.594195 C344.292847,101.411195 341.235847,97.4431957 338.316847,93.5861957 C337.466847,92.4631957 336.578847,91.2621957 335.797847,90.0021957 C336.465847,90.7911957 337.120847,91.6071957 337.760847,92.4211957 C338.757847,93.6901957 339.788847,95.0021957 340.844847,96.1141957 C344.039847,99.4771957 347.422847,102.736195 350.900847,105.795195 L351.052847,105.928195 C352.984847,107.612195 355.068847,109.112195 357.354847,109.401195 C356.315847,109.844195 353.790847,109.639195 347.927847,104.594195 Z M353.979847,102.520195 L353.982847,102.522195 L354.316847,102.866195 C355.353847,103.935195 357.975847,106.654195 358.100847,108.288195 C358.055847,108.440195 358.036847,108.591195 358.042847,108.745195 C355.706847,108.706195 353.533847,107.151195 351.518847,105.394195 L351.369847,105.265195 C347.906847,102.217195 344.537847,98.9731957 341.358847,95.6261957 C340.325847,94.5371957 339.349847,93.2981957 338.318847,91.9841957 C337.185847,90.5421957 336.024847,89.0851957 334.771847,87.8181957 C342.057847,90.5471957 348.033847,96.3181957 353.979847,102.520195 Z M388.060847,84.7711957 C389.089847,84.2901957 390.151847,83.7921957 391.165847,83.1601957 C392.020847,82.6261957 392.829847,81.9861957 393.591847,81.2691957 C399.462847,79.1511957 405.485847,77.3741957 411.557847,76.0201957 C413.593847,75.5651957 415.705847,75.1791957 417.700847,75.4091957 C418.850847,75.8201957 419.974847,76.3041957 421.052847,76.8821957 C420.878847,77.1641957 420.688847,77.4391957 420.498847,77.7141957 C413.710847,81.3971957 406.441847,84.0191957 398.846847,85.4911957 C396.241847,85.9961957 393.105847,86.4351957 389.987847,86.1381957 C389.274847,85.6971957 388.558847,85.2651957 387.822847,84.8841957 L388.060847,84.7711957 Z M385.179847,82.8661957 L385.177847,82.8641957 C385.221847,79.4001957 387.106847,76.2431957 389.101847,72.9071957 C389.497847,72.2461957 389.891847,71.5881957 390.267847,70.9301957 C393.138847,65.9231957 395.161847,60.5481957 396.305847,54.9241957 C397.334847,56.5501957 397.786847,59.0211957 397.654847,62.3091957 C397.482847,66.6251957 396.897847,69.9571957 395.817847,72.8001957 C394.495847,76.2791957 392.310847,79.1051957 389.663847,80.7561957 C388.796847,81.3001957 387.855847,81.7391957 386.860847,82.2061957 C386.340847,82.4481957 385.811847,82.6971957 385.284847,82.9651957 L385.179847,82.8661957 Z M415.349847,74.6851957 C414.001847,74.7891957 412.661847,75.0481957 411.404847,75.3281957 C405.769847,76.5841957 400.176847,78.1961957 394.707847,80.1091957 C395.597847,79.1001957 396.404847,77.9741957 397.098847,76.7361957 L397.144847,76.7231957 C402.691847,73.8191957 409.300847,73.1591957 415.349847,74.6851957 Z M408.278847,87.0821957 C405.425847,87.6071957 402.528847,88.0891957 399.607847,88.3911957 C397.959847,88.5631957 396.239847,88.6711957 394.554847,88.5021957 C393.564847,88.1891957 392.637847,87.8181957 391.885847,87.4171957 C391.658847,87.2551957 391.433847,87.0891957 391.203847,86.9331957 C393.969847,87.0301957 396.681847,86.6331957 398.982847,86.1861957 C406.155847,84.7971957 413.043847,82.3931957 419.512847,79.0421957 C416.803847,82.3861957 412.944847,85.1351957 408.278847,87.0821957 Z M416.277847,96.1371957 L416.153847,96.1321957 C414.859847,96.0621957 413.519847,95.7641957 412.220847,95.4761957 L397.507847,92.2191957 L397.389847,92.2171957 L397.216847,92.0431957 C398.836847,92.2951957 400.372847,92.3421957 401.543847,92.1001957 C405.921847,91.1931957 409.902847,89.7031957 413.350847,87.7471957 C415.630847,89.7921957 416.717847,92.9431957 416.277847,96.1371957 Z M403.017847,105.497195 C403.402847,106.302195 404.565847,109.010195 403.369847,110.041195 C402.354847,110.914195 400.299847,110.004195 399.462847,109.570195 C391.087847,105.238195 385.163847,96.3641957 384.382847,86.9601957 C384.364847,86.7371957 384.369847,86.5451957 384.372847,86.3991957 C385.870847,87.0221957 387.325847,87.7861957 388.733847,88.6731957 L388.819847,88.7511957 C389.268847,89.1421957 389.839847,89.5161957 390.485847,89.8671957 C395.535847,93.5411957 399.865847,98.8971957 403.017847,105.497195 Z M404.398847,88.4631957 C403.287847,88.7921957 402.144847,89.0801957 400.968847,89.3241957 C400.159847,89.4911957 399.013847,89.4481957 397.765847,89.2571957 C398.411847,89.2191957 399.052847,89.1631957 399.681847,89.0981957 C401.264847,88.9331957 402.834847,88.7081957 404.398847,88.4631957 Z M369.653847,117.325195 L372.257847,116.337195 C370.799847,117.236195 369.300847,118.073195 367.827847,118.884195 C366.262847,119.748195 364.642847,120.638195 363.102847,121.604195 C361.481847,122.617195 360.064847,123.989195 358.696847,125.319195 C358.325847,125.679195 357.949847,126.024195 357.576847,126.375195 C357.849847,124.825195 359.796847,122.516195 361.236847,121.433195 C363.701847,119.578195 366.727847,118.432195 369.653847,117.325195 Z M358.464847,126.528195 C358.707847,126.296195 358.948847,126.062195 359.190847,125.826195 C360.531847,124.524195 361.919847,123.176195 363.475847,122.204195 C365.001847,121.250195 366.611847,120.363195 368.169847,119.506195 C369.976847,118.511195 371.828847,117.492195 373.594847,116.340195 C369.532847,120.966195 364.283847,124.507195 358.464847,126.528195 Z M367.750847,124.190195 C364.331847,126.621195 359.867847,128.645195 358.317847,127.825195 C358.088847,127.703195 357.942847,127.582195 357.827847,127.463195 C363.908847,125.523195 369.414847,121.967195 373.701847,117.251195 C372.376847,119.937195 370.334847,122.354195 367.750847,124.190195 Z M349.968847,27.4251957 C349.802847,27.2871957 349.490847,27.0001957 349.049847,26.8541957 C347.841847,26.4491957 346.843847,27.2621957 346.518847,27.5291957 C342.971847,30.4081957 338.968847,34.2531957 338.085847,39.1341957 L336.130847,38.2271957 C335.476847,37.9241957 334.490847,37.4681957 333.364847,37.7151957 C332.254847,37.9561957 330.863847,38.8791957 330.536847,41.8891957 C329.313847,53.2761957 332.214847,63.5421957 338.496847,70.0561957 C341.063847,72.7241957 344.155847,74.7531957 347.138847,76.7171957 C348.144847,77.3791957 349.150847,78.0391957 350.134847,78.7251957 C354.023847,81.4331957 356.918847,84.0411957 358.411847,87.9921957 L358.449847,88.0951957 C360.336847,93.1781957 360.657847,98.8161957 359.432847,104.490195 C358.566847,103.245195 357.450847,102.027195 356.348847,100.893195 L356.024847,100.558195 L356.026847,100.559195 C349.062847,93.2961957 342.046847,86.5881957 332.782847,84.2151957 C332.313847,84.0951957 331.814847,84.2211957 331.462847,84.5531957 C331.109847,84.8821957 330.948847,85.3691957 331.037847,85.8451957 C331.727847,89.5721957 334.027847,92.6131957 336.056847,95.2941957 C339.021847,99.2121957 342.084847,103.261195 345.908847,106.593195 L346.077847,106.741195 C349.246847,109.467195 353.610847,112.756195 357.157847,112.342195 C356.276847,115.089195 355.397847,117.917195 354.868847,120.829195 C352.585847,133.381195 357.477847,147.132195 367.088847,155.511195 C367.436847,155.815195 367.793847,156.113195 368.154847,156.402195 C368.765847,156.893195 369.656847,156.794195 370.147847,156.185195 C370.636847,155.572195 370.582847,154.658195 369.927847,154.193195 C362.780847,148.461195 358.221847,139.598195 357.311847,130.459195 C361.090847,132.048195 367.478847,127.860195 369.392847,126.500195 C373.901847,123.296195 377.014847,118.537195 377.939847,113.450195 C378.030847,112.946195 377.850847,112.424195 377.451847,112.107195 C377.059847,111.782195 376.521847,111.691195 376.044847,111.872195 L368.648847,114.675195 C365.536847,115.852195 362.322847,117.071195 359.533847,119.167195 L359.532847,119.168195 C359.116847,119.481195 358.466847,120.047195 357.776847,120.776195 C358.332847,117.974195 359.219847,115.181195 360.090847,112.473195 C360.578847,110.955195 361.052847,109.433195 361.489847,107.900195 C363.925847,103.500195 366.691847,98.9791957 370.231847,95.0091957 C373.667847,91.1601957 377.535847,88.2611957 381.539847,86.5191957 C381.533847,86.7361957 381.539847,86.9621957 381.558847,87.1931957 C382.417847,97.5471957 388.925847,107.314195 398.161847,112.090195 C401.053847,113.581195 403.559847,113.617195 405.220847,112.188195 C407.109847,110.560195 407.235847,107.750195 405.573847,104.275195 C404.087847,101.163195 402.338847,98.3211957 400.393847,95.7601957 L411.607847,98.2421957 C413.015847,98.5561957 414.471847,98.8781957 415.998847,98.9631957 C416.425847,98.9861957 417.560847,99.0491957 418.355847,98.2221957 C418.926847,97.6421957 419.043847,96.8891957 419.092847,96.5711957 C419.676847,92.8611957 418.419847,88.9291957 415.815847,86.2041957 C419.469847,83.6841957 422.360847,80.5751957 424.238847,77.0181957 C424.588847,76.3601957 424.347847,75.5411957 423.726847,75.1501957 C416.335847,70.6241957 406.862847,69.8421957 398.783847,72.9001957 C399.772847,69.9731957 400.318847,66.6141957 400.485847,62.4221957 C400.721847,56.5931957 399.243847,52.6921957 396.088847,50.8531957 C395.683847,50.6151957 395.186847,50.5951957 394.762847,50.7961957 C394.338847,50.9991957 394.042847,51.3981957 393.972847,51.8621957 C393.023847,58.1001957 390.948847,64.0421957 387.809847,69.5211957 C387.440847,70.1631957 387.055847,70.8061957 386.670847,71.4541957 C384.517847,75.0521957 382.293847,78.7751957 382.345847,83.1271957 L382.345847,83.1611957 C377.274847,84.9301957 372.368847,88.3601957 368.117847,93.1221957 C366.174847,95.3001957 364.470847,97.6221957 362.920847,99.9871957 C363.197847,95.6831957 362.653847,91.4641957 361.259847,87.5291957 C361.516847,86.7531957 361.743847,85.9691957 361.953847,85.1811957 C364.683847,84.2961957 367.257847,82.5171957 370.017847,79.5851957 C380.535847,68.4061957 384.111847,51.1881957 378.915847,36.7451957 C378.764847,36.3211957 378.349847,35.1921957 377.217847,34.8231957 C375.847847,34.3771957 374.762847,35.3781957 374.405847,35.7071957 C374.207847,35.8901957 374.019847,36.0811957 373.825847,36.2661957 C373.935847,34.4441957 373.769847,32.6351957 373.269847,31.2881957 C372.222847,28.4671957 370.340847,26.0951957 368.639847,24.1471957 C366.512847,21.7181957 364.754847,22.0161957 363.893847,22.4151957 C363.169847,22.7521957 362.709847,23.3181957 362.318847,23.8791957 C361.900847,24.4841957 361.510847,25.1211957 361.128847,25.7671957 L357.505847,22.3041957 C356.268847,21.0881957 355.171847,21.3311957 354.655847,21.5901957 C354.197847,21.8171957 353.931847,22.1681957 353.776847,22.3661957 C352.433847,24.1701957 351.546847,26.2931957 351.192847,28.5041957 L349.968847,27.4251957 L349.968847,27.4251957 Z" id="Fill-70" fill-rule="nonzero" transform="translate(377.331313, 89.046905) scale(-1, 1) rotate(-40.000000) translate(-377.331313, -89.046905) "></path>
        </g>
    </g>
</svg>