<?xml version="1.0" encoding="UTF-8"?>
<svg width="431px" height="111px" viewBox="0 0 431 111" version="1.1" xmlns="http://www.w3.org/2000/svg" xmlns:xlink="http://www.w3.org/1999/xlink">
    <!-- Generator: Sketch 53.2 (72643) - https://sketchapp.com -->
    <title>urban_plantery</title>
    <desc>Created with Sketch.</desc>
    <g id="Page-1" stroke="none" stroke-width="1" fill="none" fill-rule="evenodd">
        <g id="urban_plantery" transform="translate(-14.000000, -41.000000)" fill="#FFFFFF">
            <g id="URBAN-PLANTERY" transform="translate(137.000000, 50.000000)" font-family="Montserrat-Bold, Montserrat" font-size="36" font-weight="bold">
                <text id="URBAN">
                    <tspan x="32.187099" y="35.3861295">URBAN</tspan>
                </text>
                <text id="PLANTERY">
                    <tspan x="0.723099" y="79.386129">PLANTERY</tspan>
                </text>
            </g>
            <path d="M68.5210896,111.087173 C63.7263494,104.836118 59.8321865,97.9385753 56.9553424,90.5847883 C55.5210896,86.9104202 53.4530973,84.1771617 51.4518145,81.5348154 C48.8001147,78.0254361 46.0650281,74.408309 44.589082,68.3087737 C49.0752911,75.3957165 53.6615643,82.5323243 58.2645149,89.5510829 C65.4024238,100.436977 72.5236554,110.979425 81.1541878,120.295401 C81.8713142,121.069838 82.6885047,121.835857 83.589082,122.284526 C79.461436,122.78286 71.8899158,115.483788 68.5210896,111.087173 Z M84.5823237,121.626811 C84.4993626,121.685705 84.4081055,121.733661 84.3168483,121.780776 C83.2383543,121.509024 82.2594137,120.595333 81.4049147,119.670704 C72.843332,110.394126 65.7750487,99.8799425 58.6901731,89.0224935 C54.3264207,82.3338674 49.9792605,75.5392329 45.7067653,68.7807759 C47.3991712,70.1235492 49.1413537,71.3771407 50.9084245,72.5768867 C55.1477353,77.781395 59.3953422,83.087705 63.5682842,88.4091591 C67.6997455,93.677609 71.681877,98.8720213 75.083281,104.503087 C76.9167207,107.53863 78.5842382,110.718041 80.193683,113.793126 C80.9320365,115.212461 81.8114239,116.649464 82.665923,118.038511 C83.3544998,119.176839 84.059669,120.347138 84.7067653,121.509024 L84.5823237,121.626811 Z M65.2911829,83.3479156 C70.4892929,88.4140609 73.9857414,94.7906917 76.728718,100.360676 C76.9319014,100.775354 77.2366766,101.367512 77.6091796,102.094251 C83.8655367,114.253673 84.9915116,118.800839 84.872988,120.490675 C84.2888355,119.482157 83.6792852,118.474479 83.0697348,117.490353 C82.2062052,116.110054 81.3172776,114.68181 80.5638056,113.280482 C78.9214061,110.197728 77.2112787,107.011516 75.3318318,103.959885 C71.8523152,98.3024228 67.7632482,93.0932849 63.5387257,87.8118095 C59.6951721,83.0055744 55.7838906,78.2085917 51.8810752,73.4906756 C52.3551699,73.7993715 52.8292646,74.1105907 53.3033594,74.4159221 C57.4516881,77.1075483 61.7524045,79.8908581 65.2911829,83.3479156 Z M105.67189,41.75833 C106.11651,40.9864829 106.535479,40.2478611 106.937347,39.5330932 L103.354737,50.290392 C101.670312,55.3559577 99.9174841,60.580834 97.7029355,65.5330932 C94.684651,61.0255405 101.268444,49.4733927 105.67189,41.75833 Z M98.4205676,65.6177243 C98.3451749,65.738807 98.2111435,65.7635178 98.1441278,65.76846 L97.9933424,65.749515 C100.213238,60.8699613 101.964023,55.7227076 103.65617,50.7006551 L105.993342,43.76846 C104.485489,51.6116589 102.273971,59.8378748 98.4205676,65.6177243 Z M94.3638564,117.91918 C94.9250678,117.143256 95.4108925,116.469272 95.7626966,115.941038 C100.445042,108.981313 105.269784,103.858194 110.513341,100.276813 C115.48048,96.8892018 121.142851,94.6515757 126.92249,92.7753734 C111.48499,101.742727 98.1499389,114.043773 87.9224905,128.775373 C89.070042,125.300145 92.5880832,120.394385 94.3638564,117.91918 Z M134.872209,90.3143103 C138.775406,89.1778437 142.754476,88.0213364 146.632383,86.6118172 C145.587034,87.1178413 144.507965,87.5662488 143.445755,88.003801 L142.771337,88.2826987 C126.020465,95.222577 110.660581,105.879144 98.3524415,119.102572 C97.8044763,119.696274 97.2565112,120.29582 96.7085461,120.897037 C94.2216275,123.618378 91.6504066,126.429901 88.6323833,128.611817 C99.4315112,113.286635 113.695465,100.641878 130.227151,91.6879236 C131.778313,91.2194755 133.329476,90.7627178 134.872209,90.3143103 Z M123.304748,106.540865 C115.717789,111.586316 107.872373,116.803099 101.961215,121.348055 C100.952399,122.120318 99.9352468,122.930561 98.9097567,123.750932 C95.4330953,126.531922 91.8397114,129.397313 88.0462319,131.26256 C88.0378946,131.155371 88.0545692,131.035523 88.0629065,130.921582 C88.2463275,130.774726 88.4547605,130.632089 88.6131695,130.526589 C88.7215546,130.458225 88.8132651,130.39408 88.8966383,130.336688 C92.064819,128.063788 94.716086,125.097961 97.2756425,122.230039 C97.8175681,121.6232 98.3594937,121.018894 98.9097567,120.419652 C111.015542,107.117319 126.131098,96.3959481 142.622313,89.4151985 L143.289298,89.1333015 C145.448663,88.2251542 147.674727,87.2832467 149.567298,85.8400014 C150.74286,85.3445716 151.901747,84.8280417 153.04396,84.2625597 C148.199978,89.9908086 135.110389,98.6967005 123.304748,106.540865 Z M78.6567326,76.2149251 C74.2866419,65.9634069 72.3923821,54.7731693 70.5562794,43.9515651 C69.3515966,36.8447151 68.1136812,29.5422638 66.1695724,22.442937 C67.8727446,25.9955261 69.2768232,29.6977419 70.323651,33.4969224 C71.594799,38.1010778 72.3923821,42.9259117 73.1650407,47.5927599 C74.3198745,54.6101682 75.507941,61.8666448 78.3493307,68.5062248 C79.3878504,70.9286726 80.6423821,73.2683659 81.855373,75.5286485 L88.1695724,87.3240801 L87.9535603,87.4235526 C85.9512945,87.8490273 80.7753126,81.1810266 78.6567326,76.2149251 Z M82.694779,52.1280207 C85.7184538,61.3539148 89.4856552,72.8365084 89.27912,82.1298925 C89.2212902,84.6818612 88.8660497,86.1683302 88.444718,86.9149393 L82.2817087,75.2290318 C81.0838047,72.9588342 79.8445938,70.6093357 78.8284407,68.1898163 C76.0278239,61.5546978 74.8464428,54.2674563 73.6981073,47.2206482 C72.9380579,42.495499 72.1449629,37.6092171 70.8644448,32.9313109 C69.9391673,29.5070329 68.733002,26.1510886 67.2872558,22.9149393 C73.5824476,30.3354737 78.6466898,39.7579326 82.3477999,51.071801 L82.694779,52.1280207 Z M101.600798,83.5963122 L102.361755,82.3807421 C108.04803,73.2993225 114.21931,64.3972079 120.725077,55.8326581 C119.755065,59.2495548 117.965561,62.4383218 116.209506,65.5361735 C115.599068,66.6019018 114.996992,67.6651047 114.428364,68.7367257 C113.274385,70.8993292 112.237476,73.1562152 111.225654,75.3381803 C110.665388,76.5596431 110.096761,77.7785804 109.511409,78.9890996 C104.81187,88.7027167 98.8329201,97.7336278 91.725077,105.832658 C92.4358613,98.1814694 97.6538544,89.8652529 101.600798,83.5963122 Z M116.899726,69.3383904 C111.370544,80.456066 102.322792,98.6187133 91.6665508,106.597922 L91.8592344,106.427527 C99.0471707,98.283798 105.104138,89.197438 109.854208,79.4219417 C110.440636,78.213225 111.001932,76.9935962 111.571605,75.7748069 C112.585288,73.6049925 113.624104,71.3621515 114.771829,69.2208763 C115.333124,68.1556947 115.936308,67.0997463 116.539491,66.0429586 C118.550103,62.513338 120.61098,58.8670426 121.46549,54.8606503 C121.53251,54.7741935 121.59953,54.6843791 121.666551,54.5979223 C121.381714,59.6308844 119.262194,64.6008924 116.899726,69.3383904 Z M91.7876679,107.186082 L92.0176679,107.048082 L91.7776679,107.228082 L91.7876679,107.186082 Z M87.0817626,133.432897 C91.6519695,131.500627 95.7777342,128.23451 99.7777134,125.075975 C100.800769,124.268271 101.807053,123.469812 102.804951,122.710856 C108.691713,118.232762 116.549115,113.06127 124.146559,108.057875 C140.398047,97.3602071 155.752265,87.2559203 156.976577,81.1145109 C157.06882,80.6539262 156.884335,80.1815748 156.498592,79.9100988 C156.11285,79.6369418 155.609708,79.6159297 155.207195,79.8563079 C148.574105,83.7906088 140.917961,86.0447843 133.513387,88.2233162 C125.110915,90.6960173 116.423329,93.2536071 109.027141,98.2813765 C103.526122,102.026569 98.4863155,107.345145 93.6226091,114.543882 C93.2787954,115.055736 92.8091962,115.707111 92.2725113,116.456821 C90.4360429,118.998442 88.6582744,121.561915 87.3165623,123.960654 C87.6519903,117.699055 88.163518,111.681197 88.8427598,105.882705 C88.7505171,106.961885 88.72536,108.036022 88.809217,109.096712 C88.8427598,109.509389 89.0859451,109.87584 89.4549159,110.064108 C89.6226299,110.151518 89.8071153,110.194383 89.9916008,110.194383 C90.209629,110.194383 90.4276572,110.136389 90.6121426,110.019562 C102.737866,102.600619 112.389807,83.1997493 118.813254,70.2832064 C121.798563,64.2872005 124.45683,57.8070765 123.702117,51.0605194 C123.643417,50.5814441 123.307989,50.1813742 122.846776,50.0485778 C122.393948,49.9216649 121.88242,50.0763138 121.588921,50.4570526 C113.840533,60.3058325 106.536588,70.6673071 99.8783418,81.2531906 L99.1152431,82.4626457 C95.1907352,88.6721342 90.0670721,96.8155741 88.976931,104.721998 C90.6205283,91.3280605 93.2033241,79.1175233 96.7840183,67.8180697 C97.1865319,68.0315524 97.6309741,68.1584653 98.1005733,68.1584653 L98.2682873,68.1542629 C99.1487859,68.098791 99.9118846,67.6541755 100.389869,66.9305196 C106.352103,57.8146409 108.515613,43.4306146 110.100511,32.9270984 L110.318539,31.4898724 C110.419167,30.8393386 109.96634,30.2325099 109.320641,30.1341733 C108.674942,30.0383583 108.062786,30.4804523 107.970543,31.1318267 L107.970543,31.1351886 C107.7022,32.8514549 105.555461,36.6437143 103.27455,40.6578611 C98.4192299,49.2181806 92.4821539,59.6847156 94.997864,65.5941516 C93.7064661,69.5452623 92.5408538,73.6115191 91.4926412,77.7912411 C90.7798566,69.0569416 87.5262048,59.2947315 84.8343949,51.2277755 L84.4821954,50.1763313 C79.7358889,35.9242608 72.8260715,24.5323541 63.9540002,16.3174731 C63.5598723,15.9476606 62.9561019,15.8947102 62.503274,16.1914007 C62.0504462,16.4855697 61.8491894,17.0537362 62.0252891,17.5681118 C64.8596559,26.0939715 66.4026248,35.1611022 67.8952796,43.930702 C69.7652908,54.9485938 71.7107733,66.341341 76.230666,76.9095744 C77.4801354,79.8386577 83.1320976,89.6328063 87.6771474,89.6328063 C87.8700185,89.6328063 88.0628896,89.6159966 88.247375,89.5781749 C88.5073317,89.5285864 88.7421314,89.4386547 88.9601596,89.3327538 C87.5094334,96.9996399 86.4109066,105.064074 85.6645792,113.584891 C84.381567,110.027126 82.3186847,105.647369 79.761046,100.628845 C79.3920751,99.9186374 79.0985756,99.3395446 78.8973188,98.9335913 L78.8973188,98.9327508 C76.0964948,93.1872089 72.5074149,86.5953007 67.1070237,81.2800861 C63.4257011,77.6609662 59.0735225,74.8142503 54.855515,72.0599874 C50.7632931,69.3805276 46.5201286,66.6102956 43.0149057,63.174401 C42.6543206,62.8163553 42.1008644,62.732307 41.6564222,62.9617588 C41.1952087,63.1903702 40.9436377,63.6828933 41.0107233,64.1871831 C42.251807,73.2358232 45.723487,77.7895601 49.0777673,82.1928506 C51.0735641,84.8176791 52.9687324,87.297104 54.2936731,90.657355 C57.2622111,98.2099354 61.2873474,105.293526 66.2516822,111.712295 C66.3606963,111.852656 75.8616952,123.855593 82.8721409,123.855593 C83.6016969,123.855593 84.3060957,123.713552 84.9685661,123.426107 C84.859552,125.414689 84.7589236,127.418401 84.6834523,129.455732 C84.1383817,144.529795 84.7337665,161.782389 93.3039525,175.4436 C93.5303664,175.803327 93.9161087,176 94.3102366,176 C94.5282648,176 94.746293,175.941166 94.9391641,175.817615 C95.5010061,175.467974 95.6603344,174.732552 95.3165207,174.175311 C87.8029329,162.211036 86.6876347,147.175635 86.9559771,133.458952 L87.0817626,133.432897 L87.0817626,133.432897 Z" id="Fill-99" fill-rule="nonzero" transform="translate(99.000000, 96.000000) rotate(-50.000000) translate(-99.000000, -96.000000) "></path>
            <path d="M353.852845,30.714195 C353.844845,28.483195 354.530845,26.269195 355.681845,24.481195 L359.649845,28.274195 C358.568845,30.059195 357.417845,31.637195 355.798845,32.562195 L353.830845,30.828195 L353.852845,30.714195 Z M366.505845,26.013195 C368.038845,27.766195 369.724845,29.883195 370.612845,32.272195 C371.379845,34.344195 371.063845,38.319195 369.983845,40.388195 C368.433845,42.264195 367.031845,44.253195 365.784845,46.334195 C365.676845,44.747195 365.323845,43.165195 364.586845,41.680195 C363.372845,39.233195 361.320845,37.426195 359.509845,35.831195 L358.013845,34.512195 C360.224845,32.938195 361.604845,30.577195 362.938845,28.277195 C363.488845,27.326195 364.038845,26.375195 364.648845,25.494195 C364.854845,25.194195 365.003845,25.025195 365.083845,24.986195 C365.180845,24.939195 365.705845,25.099195 366.505845,26.013195 Z M367.952845,77.642195 C366.117845,79.593195 364.411845,80.950195 362.707845,81.814195 C362.886845,80.826195 363.024845,79.834195 363.132845,78.838195 C369.187845,73.625195 373.523845,66.561195 375.353845,58.777195 C376.231845,55.063195 376.627845,50.869195 376.606845,45.584195 C376.595845,43.002195 376.474845,40.403195 376.283845,37.831195 L376.290845,37.823195 C381.073845,51.265195 377.730845,67.252195 367.952845,77.642195 Z M351.752845,76.398195 C350.748845,75.701195 349.722845,75.025195 348.696845,74.349195 C345.706845,72.381195 342.884845,70.526195 340.534845,68.088195 C334.839845,62.181195 332.223845,52.743195 333.355845,42.193195 C333.486845,40.973195 333.825845,40.513195 333.969845,40.483195 C334.164845,40.440195 334.687845,40.682195 334.938845,40.798195 L341.681845,43.925195 C345.053845,45.488195 348.527845,47.100195 351.297845,49.515195 C351.652845,49.824195 351.995845,50.147195 352.327845,50.486195 C353.868845,52.062195 355.241845,54.095195 356.523845,56.701195 C360.623845,65.049195 361.629845,74.713195 359.413845,83.705195 C357.568845,80.832195 354.957845,78.630195 351.752845,76.398195 Z M347.447845,30.439195 C345.938845,33.203195 346.022845,36.622195 346.273845,40.173195 C346.338845,41.107195 346.420845,42.172195 346.699845,43.193195 C345.406845,42.534195 344.112845,41.929195 342.872845,41.354195 L340.774845,40.382195 C341.134845,36.431195 344.346845,33.062195 347.447845,30.439195 Z M347.595845,43.660195 C347.152845,42.524195 347.056845,41.226195 346.978845,40.123195 C346.726845,36.538195 346.644845,33.099195 348.261845,30.444195 C348.855845,33.801195 350.362845,36.435195 351.953845,39.213195 C352.445845,40.071195 352.952845,40.955195 353.449845,41.889195 C355.065845,44.929195 356.654845,48.382195 357.054845,51.920195 C356.206845,50.629195 355.313845,49.486195 354.352845,48.504195 C352.379845,46.481195 350.009845,44.950195 347.595845,43.660195 Z M371.683845,51.592195 C371.298845,53.343195 370.908845,55.113195 370.493845,56.911195 C368.967845,63.527195 366.803845,71.526195 363.295845,76.988195 C363.569845,72.762195 363.213845,68.506195 362.243845,64.382195 L362.248845,64.368195 C362.686845,61.448195 363.419845,58.591195 364.409845,55.833195 L364.421845,55.808195 L364.431845,55.769195 C366.616845,49.703195 370.080845,44.131195 374.596845,39.486195 C373.473845,43.517195 372.592845,47.465195 371.683845,51.592195 Z M375.636845,38.455195 C375.800845,40.824195 375.888845,43.215195 375.898845,45.588195 C375.919845,50.815195 375.527845,54.956195 374.665845,58.615195 C373.013845,65.639195 369.299845,72.085195 364.093845,77.053195 C367.543845,71.508195 369.673845,63.616195 371.185845,57.070195 C371.600845,55.272195 371.989845,53.498195 372.376845,51.745195 C373.372845,47.219195 374.321845,42.915195 375.608845,38.482195 L375.636845,38.455195 Z M357.634845,37.956195 C359.329845,39.448195 361.081845,40.992195 362.048845,42.940195 C363.749845,46.367195 362.869845,50.579195 361.713845,54.962195 C361.264845,56.224195 360.866845,57.505195 360.523845,58.803195 C360.084845,57.669195 359.604845,56.548195 359.066845,55.453195 C358.667845,54.641195 358.255845,53.890195 357.834845,53.172195 C357.722845,49.054195 355.925845,45.037195 354.075845,41.558195 C353.574845,40.617195 353.065845,39.727195 352.568845,38.861195 C350.946845,36.028195 349.538845,33.540195 348.973845,30.325195 L357.634845,37.956195 Z M347.927845,104.594195 C344.292845,101.411195 341.235845,97.443195 338.316845,93.586195 C337.466845,92.463195 336.578845,91.262195 335.797845,90.002195 C336.465845,90.791195 337.120845,91.607195 337.760845,92.421195 C338.757845,93.690195 339.788845,95.002195 340.844845,96.114195 C344.039845,99.477195 347.422845,102.736195 350.900845,105.795195 L351.052845,105.928195 C352.984845,107.612195 355.068845,109.112195 357.354845,109.401195 C356.315845,109.844195 353.790845,109.639195 347.927845,104.594195 Z M353.979845,102.520195 L353.982845,102.522195 L354.316845,102.866195 C355.353845,103.935195 357.975845,106.654195 358.100845,108.288195 C358.055845,108.440195 358.036845,108.591195 358.042845,108.745195 C355.706845,108.706195 353.533845,107.151195 351.518845,105.394195 L351.369845,105.265195 C347.906845,102.217195 344.537845,98.973195 341.358845,95.626195 C340.325845,94.537195 339.349845,93.298195 338.318845,91.984195 C337.185845,90.542195 336.024845,89.085195 334.771845,87.818195 C342.057845,90.547195 348.033845,96.318195 353.979845,102.520195 Z M388.060845,84.771195 C389.089845,84.290195 390.151845,83.792195 391.165845,83.160195 C392.020845,82.626195 392.829845,81.986195 393.591845,81.269195 C399.462845,79.151195 405.485845,77.374195 411.557845,76.020195 C413.593845,75.565195 415.705845,75.179195 417.700845,75.409195 C418.850845,75.820195 419.974845,76.304195 421.052845,76.882195 C420.878845,77.164195 420.688845,77.439195 420.498845,77.714195 C413.710845,81.397195 406.441845,84.019195 398.846845,85.491195 C396.241845,85.996195 393.105845,86.435195 389.987845,86.138195 C389.274845,85.697195 388.558845,85.265195 387.822845,84.884195 L388.060845,84.771195 Z M385.179845,82.866195 L385.177845,82.864195 C385.221845,79.400195 387.106845,76.243195 389.101845,72.907195 C389.497845,72.246195 389.891845,71.588195 390.267845,70.930195 C393.138845,65.923195 395.161845,60.548195 396.305845,54.924195 C397.334845,56.550195 397.786845,59.021195 397.654845,62.309195 C397.482845,66.625195 396.897845,69.957195 395.817845,72.800195 C394.495845,76.279195 392.310845,79.105195 389.663845,80.756195 C388.796845,81.300195 387.855845,81.739195 386.860845,82.206195 C386.340845,82.448195 385.811845,82.697195 385.284845,82.965195 L385.179845,82.866195 Z M415.349845,74.685195 C414.001845,74.789195 412.661845,75.048195 411.404845,75.328195 C405.769845,76.584195 400.176845,78.196195 394.707845,80.109195 C395.597845,79.100195 396.404845,77.974195 397.098845,76.736195 L397.144845,76.723195 C402.691845,73.819195 409.300845,73.159195 415.349845,74.685195 Z M408.278845,87.082195 C405.425845,87.607195 402.528845,88.089195 399.607845,88.391195 C397.959845,88.563195 396.239845,88.671195 394.554845,88.502195 C393.564845,88.189195 392.637845,87.818195 391.885845,87.417195 C391.658845,87.255195 391.433845,87.089195 391.203845,86.933195 C393.969845,87.030195 396.681845,86.633195 398.982845,86.186195 C406.155845,84.797195 413.043845,82.393195 419.512845,79.042195 C416.803845,82.386195 412.944845,85.135195 408.278845,87.082195 Z M416.277845,96.137195 L416.153845,96.132195 C414.859845,96.062195 413.519845,95.764195 412.220845,95.476195 L397.507845,92.219195 L397.389845,92.217195 L397.216845,92.043195 C398.836845,92.295195 400.372845,92.342195 401.543845,92.100195 C405.921845,91.193195 409.902845,89.703195 413.350845,87.747195 C415.630845,89.792195 416.717845,92.943195 416.277845,96.137195 Z M403.017845,105.497195 C403.402845,106.302195 404.565845,109.010195 403.369845,110.041195 C402.354845,110.914195 400.299845,110.004195 399.462845,109.570195 C391.087845,105.238195 385.163845,96.364195 384.382845,86.960195 C384.364845,86.737195 384.369845,86.545195 384.372845,86.399195 C385.870845,87.022195 387.325845,87.786195 388.733845,88.673195 L388.819845,88.751195 C389.268845,89.142195 389.839845,89.516195 390.485845,89.867195 C395.535845,93.541195 399.865845,98.897195 403.017845,105.497195 Z M404.398845,88.463195 C403.287845,88.792195 402.144845,89.080195 400.968845,89.324195 C400.159845,89.491195 399.013845,89.448195 397.765845,89.257195 C398.411845,89.219195 399.052845,89.163195 399.681845,89.098195 C401.264845,88.933195 402.834845,88.708195 404.398845,88.463195 Z M369.653845,117.325195 L372.257845,116.337195 C370.799845,117.236195 369.300845,118.073195 367.827845,118.884195 C366.262845,119.748195 364.642845,120.638195 363.102845,121.604195 C361.481845,122.617195 360.064845,123.989195 358.696845,125.319195 C358.325845,125.679195 357.949845,126.024195 357.576845,126.375195 C357.849845,124.825195 359.796845,122.516195 361.236845,121.433195 C363.701845,119.578195 366.727845,118.432195 369.653845,117.325195 Z M358.464845,126.528195 C358.707845,126.296195 358.948845,126.062195 359.190845,125.826195 C360.531845,124.524195 361.919845,123.176195 363.475845,122.204195 C365.001845,121.250195 366.611845,120.363195 368.169845,119.506195 C369.976845,118.511195 371.828845,117.492195 373.594845,116.340195 C369.532845,120.966195 364.283845,124.507195 358.464845,126.528195 Z M367.750845,124.190195 C364.331845,126.621195 359.867845,128.645195 358.317845,127.825195 C358.088845,127.703195 357.942845,127.582195 357.827845,127.463195 C363.908845,125.523195 369.414845,121.967195 373.701845,117.251195 C372.376845,119.937195 370.334845,122.354195 367.750845,124.190195 Z M349.968845,27.425195 C349.802845,27.287195 349.490845,27.000195 349.049845,26.854195 C347.841845,26.449195 346.843845,27.262195 346.518845,27.529195 C342.971845,30.408195 338.968845,34.253195 338.085845,39.134195 L336.130845,38.227195 C335.476845,37.924195 334.490845,37.468195 333.364845,37.715195 C332.254845,37.956195 330.863845,38.879195 330.536845,41.889195 C329.313845,53.276195 332.214845,63.542195 338.496845,70.056195 C341.063845,72.724195 344.155845,74.753195 347.138845,76.717195 C348.144845,77.379195 349.150845,78.039195 350.134845,78.725195 C354.023845,81.433195 356.918845,84.041195 358.411845,87.992195 L358.449845,88.095195 C360.336845,93.178195 360.657845,98.816195 359.432845,104.490195 C358.566845,103.245195 357.450845,102.027195 356.348845,100.893195 L356.024845,100.558195 L356.026845,100.559195 C349.062845,93.296195 342.046845,86.588195 332.782845,84.215195 C332.313845,84.095195 331.814845,84.221195 331.462845,84.553195 C331.109845,84.882195 330.948845,85.369195 331.037845,85.845195 C331.727845,89.572195 334.027845,92.613195 336.056845,95.294195 C339.021845,99.212195 342.084845,103.261195 345.908845,106.593195 L346.077845,106.741195 C349.246845,109.467195 353.610845,112.756195 357.157845,112.342195 C356.276845,115.089195 355.397845,117.917195 354.868845,120.829195 C352.585845,133.381195 357.477845,147.132195 367.088845,155.511195 C367.436845,155.815195 367.793845,156.113195 368.154845,156.402195 C368.765845,156.893195 369.656845,156.794195 370.147845,156.185195 C370.636845,155.572195 370.582845,154.658195 369.927845,154.193195 C362.780845,148.461195 358.221845,139.598195 357.311845,130.459195 C361.090845,132.048195 367.478845,127.860195 369.392845,126.500195 C373.901845,123.296195 377.014845,118.537195 377.939845,113.450195 C378.030845,112.946195 377.850845,112.424195 377.451845,112.107195 C377.059845,111.782195 376.521845,111.691195 376.044845,111.872195 L368.648845,114.675195 C365.536845,115.852195 362.322845,117.071195 359.533845,119.167195 L359.532845,119.168195 C359.116845,119.481195 358.466845,120.047195 357.776845,120.776195 C358.332845,117.974195 359.219845,115.181195 360.090845,112.473195 C360.578845,110.955195 361.052845,109.433195 361.489845,107.900195 C363.925845,103.500195 366.691845,98.979195 370.231845,95.009195 C373.667845,91.160195 377.535845,88.261195 381.539845,86.519195 C381.533845,86.736195 381.539845,86.962195 381.558845,87.193195 C382.417845,97.547195 388.925845,107.314195 398.161845,112.090195 C401.053845,113.581195 403.559845,113.617195 405.220845,112.188195 C407.109845,110.560195 407.235845,107.750195 405.573845,104.275195 C404.087845,101.163195 402.338845,98.321195 400.393845,95.760195 L411.607845,98.242195 C413.015845,98.556195 414.471845,98.878195 415.998845,98.963195 C416.425845,98.986195 417.560845,99.049195 418.355845,98.222195 C418.926845,97.642195 419.043845,96.889195 419.092845,96.571195 C419.676845,92.861195 418.419845,88.929195 415.815845,86.204195 C419.469845,83.684195 422.360845,80.575195 424.238845,77.018195 C424.588845,76.360195 424.347845,75.541195 423.726845,75.150195 C416.335845,70.624195 406.862845,69.842195 398.783845,72.900195 C399.772845,69.973195 400.318845,66.614195 400.485845,62.422195 C400.721845,56.593195 399.243845,52.692195 396.088845,50.853195 C395.683845,50.615195 395.186845,50.595195 394.762845,50.796195 C394.338845,50.999195 394.042845,51.398195 393.972845,51.862195 C393.023845,58.100195 390.948845,64.042195 387.809845,69.521195 C387.440845,70.163195 387.055845,70.806195 386.670845,71.454195 C384.517845,75.052195 382.293845,78.775195 382.345845,83.127195 L382.345845,83.161195 C377.274845,84.930195 372.368845,88.360195 368.117845,93.122195 C366.174845,95.300195 364.470845,97.622195 362.920845,99.987195 C363.197845,95.683195 362.653845,91.464195 361.259845,87.529195 C361.516845,86.753195 361.743845,85.969195 361.953845,85.181195 C364.683845,84.296195 367.257845,82.517195 370.017845,79.585195 C380.535845,68.406195 384.111845,51.188195 378.915845,36.745195 C378.764845,36.321195 378.349845,35.192195 377.217845,34.823195 C375.847845,34.377195 374.762845,35.378195 374.405845,35.707195 C374.207845,35.890195 374.019845,36.081195 373.825845,36.266195 C373.935845,34.444195 373.769845,32.635195 373.269845,31.288195 C372.222845,28.467195 370.340845,26.095195 368.639845,24.147195 C366.512845,21.718195 364.754845,22.016195 363.893845,22.415195 C363.169845,22.752195 362.709845,23.318195 362.318845,23.879195 C361.900845,24.484195 361.510845,25.121195 361.128845,25.767195 L357.505845,22.304195 C356.268845,21.088195 355.171845,21.331195 354.655845,21.590195 C354.197845,21.817195 353.931845,22.168195 353.776845,22.366195 C352.433845,24.170195 351.546845,26.293195 351.192845,28.504195 L349.968845,27.425195 L349.968845,27.425195 Z" id="Fill-70" fill-rule="nonzero" transform="translate(377.331312, 89.046905) scale(-1, 1) rotate(-40.000000) translate(-377.331312, -89.046905) "></path>
        </g>
    </g>
</svg>